<?xml version="1.0" encoding="utf-8" standalone="no"?>
<!DOCTYPE svg PUBLIC "-//W3C//DTD SVG 1.1//EN"
  "http://www.w3.org/Graphics/SVG/1.1/DTD/svg11.dtd">
<svg xmlns:xlink="http://www.w3.org/1999/xlink" width="864pt" height="432pt" viewBox="0 0 864 432" xmlns="http://www.w3.org/2000/svg" version="1.1">
 <metadata>
  <rdf:RDF xmlns:dc="http://purl.org/dc/elements/1.1/" xmlns:cc="http://creativecommons.org/ns#" xmlns:rdf="http://www.w3.org/1999/02/22-rdf-syntax-ns#">
   <cc:Work>
    <dc:type rdf:resource="http://purl.org/dc/dcmitype/StillImage"/>
    <dc:date>2026-10-04T21:25:42.256705</dc:date>
    <dc:format>image/svg+xml</dc:format>
    <dc:creator>
     <cc:Agent>
      <dc:title>Matplotlib v3.10.8, https://matplotlib.org/</dc:title>
     </cc:Agent>
    </dc:creator>
   </cc:Work>
  </rdf:RDF>
 </metadata>
 <defs>
  <style type="text/css">*{stroke-linejoin: round; stroke-linecap: butt}</style>
 </defs>
 <g id="figure_1">
  <g id="patch_1">
   <path d="M 0 432 
L 864 432 
L 864 0 
L 0 0 
z
" style="fill: #ffffff"/>
  </g>
  <g id="axes_1">
   <g id="PolyCollection_1">
    <path d="M 84.713316 241.523759 
L 84.713316 210.978798 
L 84.713316 210.978798 
z
" clip-path="url(#p5aea308104)" style="fill: #698497"/>
    <path d="M 84.713316 241.523759 
L 84.713316 210.978798 
L 84.713316 241.523759 
z
" clip-path="url(#p5aea308104)" style="fill: #698497"/>
    <path d="M 93.697128 241.523759 
L 84.713316 241.523759 
L 93.697128 241.523759 
z
" clip-path="url(#p5aea308104)" style="fill: #698497"/>
    <path d="M 93.697128 241.523759 
L 84.713316 241.523759 
L 84.713316 241.523759 
z
" clip-path="url(#p5aea308104)" style="fill: #698497"/>
    <path d="M 93.697128 210.978798 
L 84.713316 210.978798 
L 84.713316 241.523759 
z
" clip-path="url(#p5aea308104)" style="fill: #698497"/>
    <path d="M 93.697128 210.978798 
L 84.713316 241.523759 
L 93.697128 241.523759 
z
" clip-path="url(#p5aea308104)" style="fill: #698497"/>
    <path d="M 93.697128 210.978798 
L 84.713316 210.978798 
L 84.713316 210.978798 
z
" clip-path="url(#p5aea308104)" style="fill: #698497"/>
    <path d="M 93.697128 210.978798 
L 93.697128 210.978798 
L 84.713316 210.978798 
z
" clip-path="url(#p5aea308104)" style="fill: #698497"/>
    <path d="M 93.697128 210.978798 
L 84.713316 241.523759 
L 84.713316 210.978798 
z
" clip-path="url(#p5aea308104)" style="fill: #698497"/>
    <path d="M 93.697128 210.978798 
L 93.697128 241.523759 
L 84.713316 241.523759 
z
" clip-path="url(#p5aea308104)" style="fill: #698497"/>
    <path d="M 93.697128 241.523759 
L 93.697128 241.523759 
L 93.697128 210.978798 
z
" clip-path="url(#p5aea308104)" style="fill: #698497"/>
    <path d="M 93.697128 241.523759 
L 93.697128 210.978798 
L 93.697128 210.978798 
z
" clip-path="url(#p5aea308104)" style="fill: #698497"/>
    <path d="M 84.713316 171.899215 
L 84.713316 102.274672 
L 84.713316 171.899215 
z
" clip-path="url(#p5aea308104)" style="fill: #698497"/>
    <path d="M 84.713316 171.899215 
L 84.713316 102.274672 
L 84.713316 102.274672 
z
" clip-path="url(#p5aea308104)" style="fill: #698497"/>
    <path d="M 93.697128 133.718014 
L 93.697128 171.899215 
L 84.713316 171.899215 
z
" clip-path="url(#p5aea308104)" style="fill: #698497"/>
    <path d="M 84.713316 102.274672 
L 93.697128 133.718014 
L 84.713316 171.899215 
z
" clip-path="url(#p5aea308104)" style="fill: #698497"/>
    <path d="M 201.502872 133.718014 
L 210.486684 171.899215 
L 201.502872 171.899215 
z
" clip-path="url(#p5aea308104)" style="fill: #698497"/>
    <path d="M 201.502872 133.718014 
L 93.697128 133.718014 
L 84.713316 102.274672 
z
" clip-path="url(#p5aea308104)" style="fill: #698497"/>
    <path d="M 210.486684 102.274672 
L 210.486684 171.899215 
L 201.502872 133.718014 
z
" clip-path="url(#p5aea308104)" style="fill: #698497"/>
    <path d="M 210.486684 102.274672 
L 201.502872 133.718014 
L 84.713316 102.274672 
z
" clip-path="url(#p5aea308104)" style="fill: #698497"/>
    <path d="M 93.697128 171.899215 
L 84.713316 171.899215 
L 84.713316 171.899215 
z
" clip-path="url(#p5aea308104)" style="fill: #698497"/>
    <path d="M 93.697128 171.899215 
L 84.713316 171.899215 
L 93.697128 171.899215 
z
" clip-path="url(#p5aea308104)" style="fill: #698497"/>
    <path d="M 93.697128 133.718014 
L 84.713316 171.899215 
L 93.697128 171.899215 
z
" clip-path="url(#p5aea308104)" style="fill: #698497"/>
    <path d="M 84.713316 102.274672 
L 84.713316 171.899215 
L 93.697128 133.718014 
z
" clip-path="url(#p5aea308104)" style="fill: #698497"/>
    <path d="M 201.502872 133.718014 
L 201.502872 171.899215 
L 210.486684 171.899215 
z
" clip-path="url(#p5aea308104)" style="fill: #698497"/>
    <path d="M 201.502872 133.718014 
L 84.713316 102.274672 
L 93.697128 133.718014 
z
" clip-path="url(#p5aea308104)" style="fill: #698497"/>
    <path d="M 210.486684 102.274672 
L 201.502872 133.718014 
L 210.486684 171.899215 
z
" clip-path="url(#p5aea308104)" style="fill: #698497"/>
    <path d="M 210.486684 102.274672 
L 84.713316 102.274672 
L 201.502872 133.718014 
z
" clip-path="url(#p5aea308104)" style="fill: #698497"/>
    <path d="M 210.486684 102.274672 
L 210.486684 102.274672 
L 84.713316 102.274672 
z
" clip-path="url(#p5aea308104)" style="fill: #698497"/>
    <path d="M 210.486684 102.274672 
L 84.713316 102.274672 
L 84.713316 102.274672 
z
" clip-path="url(#p5aea308104)" style="fill: #698497"/>
    <path d="M 210.486684 171.899215 
L 210.486684 171.899215 
L 210.486684 102.274672 
z
" clip-path="url(#p5aea308104)" style="fill: #698497"/>
    <path d="M 210.486684 171.899215 
L 210.486684 102.274672 
L 210.486684 102.274672 
z
" clip-path="url(#p5aea308104)" style="fill: #698497"/>
    <path d="M 210.486684 171.899215 
L 201.502872 171.899215 
L 210.486684 171.899215 
z
" clip-path="url(#p5aea308104)" style="fill: #698497"/>
    <path d="M 210.486684 171.899215 
L 201.502872 171.899215 
L 201.502872 171.899215 
z
" clip-path="url(#p5aea308104)" style="fill: #698497"/>
    <path d="M 201.502872 171.899215 
L 201.502872 133.718014 
L 201.502872 133.718014 
z
" clip-path="url(#p5aea308104)" style="fill: #698497"/>
    <path d="M 201.502872 171.899215 
L 201.502872 133.718014 
L 201.502872 171.899215 
z
" clip-path="url(#p5aea308104)" style="fill: #698497"/>
    <path d="M 201.502872 133.718014 
L 93.697128 133.718014 
L 201.502872 133.718014 
z
" clip-path="url(#p5aea308104)" style="fill: #698497"/>
    <path d="M 201.502872 133.718014 
L 93.697128 133.718014 
L 93.697128 133.718014 
z
" clip-path="url(#p5aea308104)" style="fill: #698497"/>
    <path d="M 93.697128 171.899215 
L 93.697128 133.718014 
L 93.697128 133.718014 
z
" clip-path="url(#p5aea308104)" style="fill: #698497"/>
    <path d="M 93.697128 171.899215 
L 93.697128 171.899215 
L 93.697128 133.718014 
z
" clip-path="url(#p5aea308104)" style="fill: #698497"/>
    <path d="M 210.486684 241.523759 
L 201.502872 241.523759 
L 210.486684 241.523759 
z
" clip-path="url(#p5aea308104)" style="fill: #698497"/>
    <path d="M 210.486684 241.523759 
L 201.502872 241.523759 
L 201.502872 241.523759 
z
" clip-path="url(#p5aea308104)" style="fill: #698497"/>
    <path d="M 210.486684 241.523759 
L 210.486684 210.978798 
L 210.486684 210.978798 
z
" clip-path="url(#p5aea308104)" style="fill: #698497"/>
    <path d="M 210.486684 241.523759 
L 210.486684 241.523759 
L 210.486684 210.978798 
z
" clip-path="url(#p5aea308104)" style="fill: #698497"/>
    <path d="M 210.486684 210.978798 
L 201.502872 210.978798 
L 201.502872 241.523759 
z
" clip-path="url(#p5aea308104)" style="fill: #698497"/>
    <path d="M 210.486684 210.978798 
L 201.502872 241.523759 
L 210.486684 241.523759 
z
" clip-path="url(#p5aea308104)" style="fill: #698497"/>
    <path d="M 201.502872 241.523759 
L 201.502872 210.978798 
L 201.502872 241.523759 
z
" clip-path="url(#p5aea308104)" style="fill: #698497"/>
    <path d="M 201.502872 241.523759 
L 201.502872 210.978798 
L 201.502872 210.978798 
z
" clip-path="url(#p5aea308104)" style="fill: #698497"/>
    <path d="M 210.486684 210.978798 
L 201.502872 241.523759 
L 201.502872 210.978798 
z
" clip-path="url(#p5aea308104)" style="fill: #698497"/>
    <path d="M 210.486684 210.978798 
L 210.486684 241.523759 
L 201.502872 241.523759 
z
" clip-path="url(#p5aea308104)" style="fill: #698497"/>
    <path d="M 210.486684 210.978798 
L 210.486684 210.978798 
L 201.502872 210.978798 
z
" clip-path="url(#p5aea308104)" style="fill: #698497"/>
    <path d="M 210.486684 210.978798 
L 201.502872 210.978798 
L 201.502872 210.978798 
z
" clip-path="url(#p5aea308104)" style="fill: #698497"/>
   </g>
   <g id="PolyCollection_2">
    <path d="M 93.697128 398.74047 
L 93.697128 376.28094 
L 93.697128 398.74047 
z
" clip-path="url(#p5aea308104)" style="fill: #e4b557"/>
    <path d="M 93.697128 398.74047 
L 93.697128 376.28094 
L 93.697128 376.28094 
z
" clip-path="url(#p5aea308104)" style="fill: #e4b557"/>
    <path d="M 201.502872 398.74047 
L 93.697128 398.74047 
L 201.502872 398.74047 
z
" clip-path="url(#p5aea308104)" style="fill: #e4b557"/>
    <path d="M 201.502872 398.74047 
L 93.697128 398.74047 
L 93.697128 398.74047 
z
" clip-path="url(#p5aea308104)" style="fill: #e4b557"/>
    <path d="M 101.782558 376.28094 
L 93.697128 376.28094 
L 93.697128 398.74047 
z
" clip-path="url(#p5aea308104)" style="fill: #e4b557"/>
    <path d="M 108.071227 376.28094 
L 101.782558 376.28094 
L 93.697128 398.74047 
z
" clip-path="url(#p5aea308104)" style="fill: #e4b557"/>
    <path d="M 142.209713 376.28094 
L 108.071227 376.28094 
L 93.697128 398.74047 
z
" clip-path="url(#p5aea308104)" style="fill: #e4b557"/>
    <path d="M 152.990287 376.28094 
L 142.209713 376.28094 
L 93.697128 398.74047 
z
" clip-path="url(#p5aea308104)" style="fill: #e4b557"/>
    <path d="M 101.782558 299.918537 
L 101.782558 376.28094 
L 108.071227 376.28094 
z
" clip-path="url(#p5aea308104)" style="fill: #e4b557"/>
    <path d="M 201.502872 398.74047 
L 152.990287 376.28094 
L 93.697128 398.74047 
z
" clip-path="url(#p5aea308104)" style="fill: #e4b557"/>
    <path d="M 88.30684 284.196866 
L 88.30684 299.918537 
L 101.782558 299.918537 
z
" clip-path="url(#p5aea308104)" style="fill: #e4b557"/>
    <path d="M 187.128773 376.28094 
L 152.990287 376.28094 
L 201.502872 398.74047 
z
" clip-path="url(#p5aea308104)" style="fill: #e4b557"/>
    <path d="M 193.417442 376.28094 
L 187.128773 376.28094 
L 201.502872 398.74047 
z
" clip-path="url(#p5aea308104)" style="fill: #e4b557"/>
    <path d="M 201.502872 376.28094 
L 193.417442 376.28094 
L 201.502872 398.74047 
z
" clip-path="url(#p5aea308104)" style="fill: #e4b557"/>
    <path d="M 108.071227 263.983289 
L 101.782558 263.983289 
L 88.30684 284.196866 
z
" clip-path="url(#p5aea308104)" style="fill: #e4b557"/>
    <path d="M 108.071227 263.983289 
L 88.30684 284.196866 
L 101.782558 299.918537 
z
" clip-path="url(#p5aea308104)" style="fill: #e4b557"/>
    <path d="M 193.417442 299.918537 
L 187.128773 376.28094 
L 193.417442 376.28094 
z
" clip-path="url(#p5aea308104)" style="fill: #e4b557"/>
    <path d="M 206.89316 284.196866 
L 193.417442 299.918537 
L 206.89316 299.918537 
z
" clip-path="url(#p5aea308104)" style="fill: #e4b557"/>
    <path d="M 187.128773 263.983289 
L 193.417442 299.918537 
L 206.89316 284.196866 
z
" clip-path="url(#p5aea308104)" style="fill: #e4b557"/>
    <path d="M 193.417442 263.983289 
L 187.128773 263.983289 
L 206.89316 284.196866 
z
" clip-path="url(#p5aea308104)" style="fill: #e4b557"/>
    <path d="M 187.128773 263.983289 
L 187.128773 376.28094 
L 193.417442 299.918537 
z
" clip-path="url(#p5aea308104)" style="fill: #e4b557"/>
    <path d="M 152.990287 376.28094 
L 152.990287 254.999477 
L 142.209713 376.28094 
z
" clip-path="url(#p5aea308104)" style="fill: #e4b557"/>
    <path d="M 142.209713 254.999477 
L 142.209713 376.28094 
L 152.990287 254.999477 
z
" clip-path="url(#p5aea308104)" style="fill: #e4b557"/>
    <path d="M 108.071227 376.28094 
L 108.071227 263.983289 
L 101.782558 299.918537 
z
" clip-path="url(#p5aea308104)" style="fill: #e4b557"/>
    <path d="M 101.782558 376.28094 
L 101.782558 376.28094 
L 93.697128 376.28094 
z
" clip-path="url(#p5aea308104)" style="fill: #e4b557"/>
    <path d="M 101.782558 376.28094 
L 93.697128 376.28094 
L 93.697128 376.28094 
z
" clip-path="url(#p5aea308104)" style="fill: #e4b557"/>
    <path d="M 101.782558 376.28094 
L 93.697128 398.74047 
L 93.697128 376.28094 
z
" clip-path="url(#p5aea308104)" style="fill: #e4b557"/>
    <path d="M 108.071227 376.28094 
L 93.697128 398.74047 
L 101.782558 376.28094 
z
" clip-path="url(#p5aea308104)" style="fill: #e4b557"/>
    <path d="M 142.209713 376.28094 
L 93.697128 398.74047 
L 108.071227 376.28094 
z
" clip-path="url(#p5aea308104)" style="fill: #e4b557"/>
    <path d="M 152.990287 376.28094 
L 93.697128 398.74047 
L 142.209713 376.28094 
z
" clip-path="url(#p5aea308104)" style="fill: #e4b557"/>
    <path d="M 101.782558 299.918537 
L 108.071227 376.28094 
L 101.782558 376.28094 
z
" clip-path="url(#p5aea308104)" style="fill: #e4b557"/>
    <path d="M 201.502872 398.74047 
L 93.697128 398.74047 
L 152.990287 376.28094 
z
" clip-path="url(#p5aea308104)" style="fill: #e4b557"/>
    <path d="M 88.30684 284.196866 
L 101.782558 299.918537 
L 88.30684 299.918537 
z
" clip-path="url(#p5aea308104)" style="fill: #e4b557"/>
    <path d="M 187.128773 376.28094 
L 201.502872 398.74047 
L 152.990287 376.28094 
z
" clip-path="url(#p5aea308104)" style="fill: #e4b557"/>
    <path d="M 193.417442 376.28094 
L 201.502872 398.74047 
L 187.128773 376.28094 
z
" clip-path="url(#p5aea308104)" style="fill: #e4b557"/>
    <path d="M 201.502872 376.28094 
L 201.502872 398.74047 
L 193.417442 376.28094 
z
" clip-path="url(#p5aea308104)" style="fill: #e4b557"/>
    <path d="M 108.071227 263.983289 
L 88.30684 284.196866 
L 101.782558 263.983289 
z
" clip-path="url(#p5aea308104)" style="fill: #e4b557"/>
    <path d="M 108.071227 263.983289 
L 101.782558 299.918537 
L 88.30684 284.196866 
z
" clip-path="url(#p5aea308104)" style="fill: #e4b557"/>
    <path d="M 193.417442 299.918537 
L 193.417442 376.28094 
L 187.128773 376.28094 
z
" clip-path="url(#p5aea308104)" style="fill: #e4b557"/>
    <path d="M 206.89316 284.196866 
L 206.89316 299.918537 
L 193.417442 299.918537 
z
" clip-path="url(#p5aea308104)" style="fill: #e4b557"/>
    <path d="M 187.128773 263.983289 
L 206.89316 284.196866 
L 193.417442 299.918537 
z
" clip-path="url(#p5aea308104)" style="fill: #e4b557"/>
    <path d="M 193.417442 263.983289 
L 206.89316 284.196866 
L 187.128773 263.983289 
z
" clip-path="url(#p5aea308104)" style="fill: #e4b557"/>
    <path d="M 187.128773 263.983289 
L 193.417442 299.918537 
L 187.128773 376.28094 
z
" clip-path="url(#p5aea308104)" style="fill: #e4b557"/>
    <path d="M 152.990287 376.28094 
L 142.209713 376.28094 
L 152.990287 254.999477 
z
" clip-path="url(#p5aea308104)" style="fill: #e4b557"/>
    <path d="M 142.209713 254.999477 
L 152.990287 254.999477 
L 142.209713 376.28094 
z
" clip-path="url(#p5aea308104)" style="fill: #e4b557"/>
    <path d="M 108.071227 376.28094 
L 101.782558 299.918537 
L 108.071227 263.983289 
z
" clip-path="url(#p5aea308104)" style="fill: #e4b557"/>
    <path d="M 201.502872 398.74047 
L 201.502872 398.74047 
L 201.502872 376.28094 
z
" clip-path="url(#p5aea308104)" style="fill: #e4b557"/>
    <path d="M 201.502872 398.74047 
L 201.502872 376.28094 
L 201.502872 376.28094 
z
" clip-path="url(#p5aea308104)" style="fill: #e4b557"/>
    <path d="M 101.782558 376.28094 
L 101.782558 299.918537 
L 101.782558 376.28094 
z
" clip-path="url(#p5aea308104)" style="fill: #e4b557"/>
    <path d="M 101.782558 376.28094 
L 101.782558 299.918537 
L 101.782558 299.918537 
z
" clip-path="url(#p5aea308104)" style="fill: #e4b557"/>
    <path d="M 88.30684 299.918537 
L 101.782558 299.918537 
L 101.782558 299.918537 
z
" clip-path="url(#p5aea308104)" style="fill: #e4b557"/>
    <path d="M 88.30684 299.918537 
L 101.782558 299.918537 
L 88.30684 299.918537 
z
" clip-path="url(#p5aea308104)" style="fill: #e4b557"/>
    <path d="M 88.30684 284.196866 
L 88.30684 299.918537 
L 88.30684 299.918537 
z
" clip-path="url(#p5aea308104)" style="fill: #e4b557"/>
    <path d="M 88.30684 284.196866 
L 88.30684 299.918537 
L 88.30684 284.196866 
z
" clip-path="url(#p5aea308104)" style="fill: #e4b557"/>
    <path d="M 101.782558 263.983289 
L 88.30684 284.196866 
L 88.30684 284.196866 
z
" clip-path="url(#p5aea308104)" style="fill: #e4b557"/>
    <path d="M 101.782558 263.983289 
L 88.30684 284.196866 
L 101.782558 263.983289 
z
" clip-path="url(#p5aea308104)" style="fill: #e4b557"/>
    <path d="M 108.071227 263.983289 
L 101.782558 263.983289 
L 101.782558 263.983289 
z
" clip-path="url(#p5aea308104)" style="fill: #e4b557"/>
    <path d="M 108.071227 263.983289 
L 101.782558 263.983289 
L 108.071227 263.983289 
z
" clip-path="url(#p5aea308104)" style="fill: #e4b557"/>
    <path d="M 108.071227 376.28094 
L 108.071227 263.983289 
L 108.071227 263.983289 
z
" clip-path="url(#p5aea308104)" style="fill: #e4b557"/>
    <path d="M 108.071227 376.28094 
L 108.071227 376.28094 
L 108.071227 263.983289 
z
" clip-path="url(#p5aea308104)" style="fill: #e4b557"/>
    <path d="M 142.209713 376.28094 
L 142.209713 376.28094 
L 108.071227 376.28094 
z
" clip-path="url(#p5aea308104)" style="fill: #e4b557"/>
    <path d="M 142.209713 376.28094 
L 108.071227 376.28094 
L 108.071227 376.28094 
z
" clip-path="url(#p5aea308104)" style="fill: #e4b557"/>
    <path d="M 142.209713 376.28094 
L 142.209713 254.999477 
L 142.209713 376.28094 
z
" clip-path="url(#p5aea308104)" style="fill: #e4b557"/>
    <path d="M 142.209713 376.28094 
L 142.209713 254.999477 
L 142.209713 254.999477 
z
" clip-path="url(#p5aea308104)" style="fill: #e4b557"/>
    <path d="M 152.990287 254.999477 
L 152.990287 254.999477 
L 142.209713 254.999477 
z
" clip-path="url(#p5aea308104)" style="fill: #e4b557"/>
    <path d="M 152.990287 254.999477 
L 142.209713 254.999477 
L 142.209713 254.999477 
z
" clip-path="url(#p5aea308104)" style="fill: #e4b557"/>
    <path d="M 152.990287 376.28094 
L 152.990287 376.28094 
L 152.990287 254.999477 
z
" clip-path="url(#p5aea308104)" style="fill: #e4b557"/>
    <path d="M 152.990287 376.28094 
L 152.990287 254.999477 
L 152.990287 254.999477 
z
" clip-path="url(#p5aea308104)" style="fill: #e4b557"/>
    <path d="M 187.128773 376.28094 
L 152.990287 376.28094 
L 152.990287 376.28094 
z
" clip-path="url(#p5aea308104)" style="fill: #e4b557"/>
    <path d="M 187.128773 376.28094 
L 187.128773 376.28094 
L 152.990287 376.28094 
z
" clip-path="url(#p5aea308104)" style="fill: #e4b557"/>
    <path d="M 187.128773 376.28094 
L 187.128773 263.983289 
L 187.128773 263.983289 
z
" clip-path="url(#p5aea308104)" style="fill: #e4b557"/>
    <path d="M 187.128773 376.28094 
L 187.128773 376.28094 
L 187.128773 263.983289 
z
" clip-path="url(#p5aea308104)" style="fill: #e4b557"/>
    <path d="M 193.417442 263.983289 
L 187.128773 263.983289 
L 187.128773 263.983289 
z
" clip-path="url(#p5aea308104)" style="fill: #e4b557"/>
    <path d="M 193.417442 263.983289 
L 187.128773 263.983289 
L 193.417442 263.983289 
z
" clip-path="url(#p5aea308104)" style="fill: #e4b557"/>
    <path d="M 206.89316 284.196866 
L 193.417442 263.983289 
L 193.417442 263.983289 
z
" clip-path="url(#p5aea308104)" style="fill: #e4b557"/>
    <path d="M 206.89316 284.196866 
L 193.417442 263.983289 
L 206.89316 284.196866 
z
" clip-path="url(#p5aea308104)" style="fill: #e4b557"/>
    <path d="M 206.89316 299.918537 
L 206.89316 284.196866 
L 206.89316 284.196866 
z
" clip-path="url(#p5aea308104)" style="fill: #e4b557"/>
    <path d="M 206.89316 299.918537 
L 206.89316 284.196866 
L 206.89316 299.918537 
z
" clip-path="url(#p5aea308104)" style="fill: #e4b557"/>
    <path d="M 193.417442 299.918537 
L 206.89316 299.918537 
L 206.89316 299.918537 
z
" clip-path="url(#p5aea308104)" style="fill: #e4b557"/>
    <path d="M 193.417442 299.918537 
L 206.89316 299.918537 
L 193.417442 299.918537 
z
" clip-path="url(#p5aea308104)" style="fill: #e4b557"/>
    <path d="M 193.417442 376.28094 
L 193.417442 299.918537 
L 193.417442 376.28094 
z
" clip-path="url(#p5aea308104)" style="fill: #e4b557"/>
    <path d="M 193.417442 376.28094 
L 193.417442 299.918537 
L 193.417442 299.918537 
z
" clip-path="url(#p5aea308104)" style="fill: #e4b557"/>
    <path d="M 201.502872 376.28094 
L 193.417442 376.28094 
L 193.417442 376.28094 
z
" clip-path="url(#p5aea308104)" style="fill: #e4b557"/>
    <path d="M 201.502872 376.28094 
L 201.502872 376.28094 
L 193.417442 376.28094 
z
" clip-path="url(#p5aea308104)" style="fill: #e4b557"/>
   </g>
   <g id="text_1">
    <!-- B -->
    <g transform="translate(143.789063 118.509765) scale(0.1 -0.1)">
     <defs>
      <path id="DejaVuSans-Bold-42" d="M 2456 2859 
Q 2741 2859 2887 2984 
Q 3034 3109 3034 3353 
Q 3034 3594 2887 3720 
Q 2741 3847 2456 3847 
L 1791 3847 
L 1791 2859 
L 2456 2859 
z
M 2497 819 
Q 2859 819 3042 972 
Q 3225 1125 3225 1434 
Q 3225 1738 3044 1889 
Q 2863 2041 2497 2041 
L 1791 2041 
L 1791 819 
L 2497 819 
z
M 3616 2497 
Q 4003 2384 4215 2081 
Q 4428 1778 4428 1338 
Q 4428 663 3972 331 
Q 3516 0 2584 0 
L 588 0 
L 588 4666 
L 2394 4666 
Q 3366 4666 3802 4372 
Q 4238 4078 4238 3431 
Q 4238 3091 4078 2852 
Q 3919 2613 3616 2497 
z
" transform="scale(0.015625)"/>
     </defs>
     <use xlink:href="#DejaVuSans-Bold-42"/>
    </g>
   </g>
   <g id="text_2">
    <!-- A -->
    <g transform="translate(143.730469 390.27008) scale(0.1 -0.1)">
     <defs>
      <path id="DejaVuSans-Bold-41" d="M 3419 850 
L 1538 850 
L 1241 0 
L 31 0 
L 1759 4666 
L 3194 4666 
L 4922 0 
L 3713 0 
L 3419 850 
z
M 1838 1716 
L 3116 1716 
L 2478 3572 
L 1838 1716 
z
" transform="scale(0.015625)"/>
     </defs>
     <use xlink:href="#DejaVuSans-Bold-41"/>
    </g>
   </g>
   <g id="patch_2">
    <path d="M 147.6 347.32975 
Q 147.6 317.887812 147.6 291.240959 
" style="fill: none; stroke: #30394a; stroke-width: 2.5; stroke-linecap: round"/>
    <path d="M 145.6 295.240959 
L 147.6 291.240959 
L 149.6 295.240959 
" style="fill: none; stroke: #30394a; stroke-width: 2.5; stroke-linecap: round"/>
   </g>
   <g id="text_3">
    <!-- 1  Line up A with B -->
    <g transform="translate(91.275937 59.323235) scale(0.12 -0.12)">
     <defs>
      <path id="DejaVuSans-31" d="M 794 531 
L 1825 531 
L 1825 4091 
L 703 3866 
L 703 4441 
L 1819 4666 
L 2450 4666 
L 2450 531 
L 3481 531 
L 3481 0 
L 794 0 
L 794 531 
z
" transform="scale(0.015625)"/>
      <path id="DejaVuSans-20" transform="scale(0.015625)"/>
      <path id="DejaVuSans-4c" d="M 628 4666 
L 1259 4666 
L 1259 531 
L 3531 531 
L 3531 0 
L 628 0 
L 628 4666 
z
" transform="scale(0.015625)"/>
      <path id="DejaVuSans-69" d="M 603 3500 
L 1178 3500 
L 1178 0 
L 603 0 
L 603 3500 
z
M 603 4863 
L 1178 4863 
L 1178 4134 
L 603 4134 
L 603 4863 
z
" transform="scale(0.015625)"/>
      <path id="DejaVuSans-6e" d="M 3513 2113 
L 3513 0 
L 2938 0 
L 2938 2094 
Q 2938 2591 2744 2837 
Q 2550 3084 2163 3084 
Q 1697 3084 1428 2787 
Q 1159 2491 1159 1978 
L 1159 0 
L 581 0 
L 581 3500 
L 1159 3500 
L 1159 2956 
Q 1366 3272 1645 3428 
Q 1925 3584 2291 3584 
Q 2894 3584 3203 3211 
Q 3513 2838 3513 2113 
z
" transform="scale(0.015625)"/>
      <path id="DejaVuSans-65" d="M 3597 1894 
L 3597 1613 
L 953 1613 
Q 991 1019 1311 708 
Q 1631 397 2203 397 
Q 2534 397 2845 478 
Q 3156 559 3463 722 
L 3463 178 
Q 3153 47 2828 -22 
Q 2503 -91 2169 -91 
Q 1331 -91 842 396 
Q 353 884 353 1716 
Q 353 2575 817 3079 
Q 1281 3584 2069 3584 
Q 2775 3584 3186 3129 
Q 3597 2675 3597 1894 
z
M 3022 2063 
Q 3016 2534 2758 2815 
Q 2500 3097 2075 3097 
Q 1594 3097 1305 2825 
Q 1016 2553 972 2059 
L 3022 2063 
z
" transform="scale(0.015625)"/>
      <path id="DejaVuSans-75" d="M 544 1381 
L 544 3500 
L 1119 3500 
L 1119 1403 
Q 1119 906 1312 657 
Q 1506 409 1894 409 
Q 2359 409 2629 706 
Q 2900 1003 2900 1516 
L 2900 3500 
L 3475 3500 
L 3475 0 
L 2900 0 
L 2900 538 
Q 2691 219 2414 64 
Q 2138 -91 1772 -91 
Q 1169 -91 856 284 
Q 544 659 544 1381 
z
M 1991 3584 
L 1991 3584 
z
" transform="scale(0.015625)"/>
      <path id="DejaVuSans-70" d="M 1159 525 
L 1159 -1331 
L 581 -1331 
L 581 3500 
L 1159 3500 
L 1159 2969 
Q 1341 3281 1617 3432 
Q 1894 3584 2278 3584 
Q 2916 3584 3314 3078 
Q 3713 2572 3713 1747 
Q 3713 922 3314 415 
Q 2916 -91 2278 -91 
Q 1894 -91 1617 61 
Q 1341 213 1159 525 
z
M 3116 1747 
Q 3116 2381 2855 2742 
Q 2594 3103 2138 3103 
Q 1681 3103 1420 2742 
Q 1159 2381 1159 1747 
Q 1159 1113 1420 752 
Q 1681 391 2138 391 
Q 2594 391 2855 752 
Q 3116 1113 3116 1747 
z
" transform="scale(0.015625)"/>
      <path id="DejaVuSans-41" d="M 2188 4044 
L 1331 1722 
L 3047 1722 
L 2188 4044 
z
M 1831 4666 
L 2547 4666 
L 4325 0 
L 3669 0 
L 3244 1197 
L 1141 1197 
L 716 0 
L 50 0 
L 1831 4666 
z
" transform="scale(0.015625)"/>
      <path id="DejaVuSans-77" d="M 269 3500 
L 844 3500 
L 1563 769 
L 2278 3500 
L 2956 3500 
L 3675 769 
L 4391 3500 
L 4966 3500 
L 4050 0 
L 3372 0 
L 2619 2869 
L 1863 0 
L 1184 0 
L 269 3500 
z
" transform="scale(0.015625)"/>
      <path id="DejaVuSans-74" d="M 1172 4494 
L 1172 3500 
L 2356 3500 
L 2356 3053 
L 1172 3053 
L 1172 1153 
Q 1172 725 1289 603 
Q 1406 481 1766 481 
L 2356 481 
L 2356 0 
L 1766 0 
Q 1100 0 847 248 
Q 594 497 594 1153 
L 594 3053 
L 172 3053 
L 172 3500 
L 594 3500 
L 594 4494 
L 1172 4494 
z
" transform="scale(0.015625)"/>
      <path id="DejaVuSans-68" d="M 3513 2113 
L 3513 0 
L 2938 0 
L 2938 2094 
Q 2938 2591 2744 2837 
Q 2550 3084 2163 3084 
Q 1697 3084 1428 2787 
Q 1159 2491 1159 1978 
L 1159 0 
L 581 0 
L 581 4863 
L 1159 4863 
L 1159 2956 
Q 1366 3272 1645 3428 
Q 1925 3584 2291 3584 
Q 2894 3584 3203 3211 
Q 3513 2838 3513 2113 
z
" transform="scale(0.015625)"/>
      <path id="DejaVuSans-42" d="M 1259 2228 
L 1259 519 
L 2272 519 
Q 2781 519 3026 730 
Q 3272 941 3272 1375 
Q 3272 1813 3026 2020 
Q 2781 2228 2272 2228 
L 1259 2228 
z
M 1259 4147 
L 1259 2741 
L 2194 2741 
Q 2656 2741 2882 2914 
Q 3109 3088 3109 3444 
Q 3109 3797 2882 3972 
Q 2656 4147 2194 4147 
L 1259 4147 
z
M 628 4666 
L 2241 4666 
Q 2963 4666 3353 4366 
Q 3744 4066 3744 3513 
Q 3744 3084 3544 2831 
Q 3344 2578 2956 2516 
Q 3422 2416 3680 2098 
Q 3938 1781 3938 1306 
Q 3938 681 3513 340 
Q 3088 0 2303 0 
L 628 0 
L 628 4666 
z
" transform="scale(0.015625)"/>
     </defs>
     <use xlink:href="#DejaVuSans-31"/>
     <use xlink:href="#DejaVuSans-20" transform="translate(63.623047 0)"/>
     <use xlink:href="#DejaVuSans-20" transform="translate(95.410156 0)"/>
     <use xlink:href="#DejaVuSans-4c" transform="translate(127.197266 0)"/>
     <use xlink:href="#DejaVuSans-69" transform="translate(182.910156 0)"/>
     <use xlink:href="#DejaVuSans-6e" transform="translate(210.693359 0)"/>
     <use xlink:href="#DejaVuSans-65" transform="translate(274.072266 0)"/>
     <use xlink:href="#DejaVuSans-20" transform="translate(335.595703 0)"/>
     <use xlink:href="#DejaVuSans-75" transform="translate(367.382812 0)"/>
     <use xlink:href="#DejaVuSans-70" transform="translate(430.761719 0)"/>
     <use xlink:href="#DejaVuSans-20" transform="translate(494.238281 0)"/>
     <use xlink:href="#DejaVuSans-41" transform="translate(526.025391 0)"/>
     <use xlink:href="#DejaVuSans-20" transform="translate(594.433594 0)"/>
     <use xlink:href="#DejaVuSans-77" transform="translate(626.220703 0)"/>
     <use xlink:href="#DejaVuSans-69" transform="translate(708.007812 0)"/>
     <use xlink:href="#DejaVuSans-74" transform="translate(735.791016 0)"/>
     <use xlink:href="#DejaVuSans-68" transform="translate(775 0)"/>
     <use xlink:href="#DejaVuSans-20" transform="translate(838.378906 0)"/>
     <use xlink:href="#DejaVuSans-42" transform="translate(870.166016 0)"/>
    </g>
   </g>
  </g>
  <g id="axes_2">
   <g id="PolyCollection_3">
    <path d="M 369.113316 241.523759 
L 369.113316 210.978798 
L 369.113316 210.978798 
z
" clip-path="url(#p75b5d6b79f)" style="fill: #698497"/>
    <path d="M 369.113316 241.523759 
L 369.113316 210.978798 
L 369.113316 241.523759 
z
" clip-path="url(#p75b5d6b79f)" style="fill: #698497"/>
    <path d="M 378.097128 241.523759 
L 369.113316 241.523759 
L 378.097128 241.523759 
z
" clip-path="url(#p75b5d6b79f)" style="fill: #698497"/>
    <path d="M 378.097128 241.523759 
L 369.113316 241.523759 
L 369.113316 241.523759 
z
" clip-path="url(#p75b5d6b79f)" style="fill: #698497"/>
    <path d="M 378.097128 210.978798 
L 369.113316 210.978798 
L 369.113316 241.523759 
z
" clip-path="url(#p75b5d6b79f)" style="fill: #698497"/>
    <path d="M 378.097128 210.978798 
L 369.113316 241.523759 
L 378.097128 241.523759 
z
" clip-path="url(#p75b5d6b79f)" style="fill: #698497"/>
    <path d="M 378.097128 210.978798 
L 369.113316 210.978798 
L 369.113316 210.978798 
z
" clip-path="url(#p75b5d6b79f)" style="fill: #698497"/>
    <path d="M 378.097128 210.978798 
L 378.097128 210.978798 
L 369.113316 210.978798 
z
" clip-path="url(#p75b5d6b79f)" style="fill: #698497"/>
    <path d="M 378.097128 210.978798 
L 369.113316 241.523759 
L 369.113316 210.978798 
z
" clip-path="url(#p75b5d6b79f)" style="fill: #698497"/>
    <path d="M 378.097128 210.978798 
L 378.097128 241.523759 
L 369.113316 241.523759 
z
" clip-path="url(#p75b5d6b79f)" style="fill: #698497"/>
    <path d="M 378.097128 241.523759 
L 378.097128 241.523759 
L 378.097128 210.978798 
z
" clip-path="url(#p75b5d6b79f)" style="fill: #698497"/>
    <path d="M 378.097128 241.523759 
L 378.097128 210.978798 
L 378.097128 210.978798 
z
" clip-path="url(#p75b5d6b79f)" style="fill: #698497"/>
    <path d="M 369.113316 171.899215 
L 369.113316 102.274672 
L 369.113316 171.899215 
z
" clip-path="url(#p75b5d6b79f)" style="fill: #698497"/>
    <path d="M 369.113316 171.899215 
L 369.113316 102.274672 
L 369.113316 102.274672 
z
" clip-path="url(#p75b5d6b79f)" style="fill: #698497"/>
    <path d="M 378.097128 133.718014 
L 378.097128 171.899215 
L 369.113316 171.899215 
z
" clip-path="url(#p75b5d6b79f)" style="fill: #698497"/>
    <path d="M 369.113316 102.274672 
L 378.097128 133.718014 
L 369.113316 171.899215 
z
" clip-path="url(#p75b5d6b79f)" style="fill: #698497"/>
    <path d="M 485.902872 133.718014 
L 494.886684 171.899215 
L 485.902872 171.899215 
z
" clip-path="url(#p75b5d6b79f)" style="fill: #698497"/>
    <path d="M 485.902872 133.718014 
L 378.097128 133.718014 
L 369.113316 102.274672 
z
" clip-path="url(#p75b5d6b79f)" style="fill: #698497"/>
    <path d="M 494.886684 102.274672 
L 494.886684 171.899215 
L 485.902872 133.718014 
z
" clip-path="url(#p75b5d6b79f)" style="fill: #698497"/>
    <path d="M 494.886684 102.274672 
L 485.902872 133.718014 
L 369.113316 102.274672 
z
" clip-path="url(#p75b5d6b79f)" style="fill: #698497"/>
    <path d="M 378.097128 171.899215 
L 369.113316 171.899215 
L 369.113316 171.899215 
z
" clip-path="url(#p75b5d6b79f)" style="fill: #698497"/>
    <path d="M 378.097128 171.899215 
L 369.113316 171.899215 
L 378.097128 171.899215 
z
" clip-path="url(#p75b5d6b79f)" style="fill: #698497"/>
    <path d="M 378.097128 133.718014 
L 369.113316 171.899215 
L 378.097128 171.899215 
z
" clip-path="url(#p75b5d6b79f)" style="fill: #698497"/>
    <path d="M 369.113316 102.274672 
L 369.113316 171.899215 
L 378.097128 133.718014 
z
" clip-path="url(#p75b5d6b79f)" style="fill: #698497"/>
    <path d="M 485.902872 133.718014 
L 485.902872 171.899215 
L 494.886684 171.899215 
z
" clip-path="url(#p75b5d6b79f)" style="fill: #698497"/>
    <path d="M 485.902872 133.718014 
L 369.113316 102.274672 
L 378.097128 133.718014 
z
" clip-path="url(#p75b5d6b79f)" style="fill: #698497"/>
    <path d="M 494.886684 102.274672 
L 485.902872 133.718014 
L 494.886684 171.899215 
z
" clip-path="url(#p75b5d6b79f)" style="fill: #698497"/>
    <path d="M 494.886684 102.274672 
L 369.113316 102.274672 
L 485.902872 133.718014 
z
" clip-path="url(#p75b5d6b79f)" style="fill: #698497"/>
    <path d="M 494.886684 102.274672 
L 494.886684 102.274672 
L 369.113316 102.274672 
z
" clip-path="url(#p75b5d6b79f)" style="fill: #698497"/>
    <path d="M 494.886684 102.274672 
L 369.113316 102.274672 
L 369.113316 102.274672 
z
" clip-path="url(#p75b5d6b79f)" style="fill: #698497"/>
    <path d="M 494.886684 171.899215 
L 494.886684 171.899215 
L 494.886684 102.274672 
z
" clip-path="url(#p75b5d6b79f)" style="fill: #698497"/>
    <path d="M 494.886684 171.899215 
L 494.886684 102.274672 
L 494.886684 102.274672 
z
" clip-path="url(#p75b5d6b79f)" style="fill: #698497"/>
    <path d="M 494.886684 171.899215 
L 485.902872 171.899215 
L 494.886684 171.899215 
z
" clip-path="url(#p75b5d6b79f)" style="fill: #698497"/>
    <path d="M 494.886684 171.899215 
L 485.902872 171.899215 
L 485.902872 171.899215 
z
" clip-path="url(#p75b5d6b79f)" style="fill: #698497"/>
    <path d="M 485.902872 171.899215 
L 485.902872 133.718014 
L 485.902872 133.718014 
z
" clip-path="url(#p75b5d6b79f)" style="fill: #698497"/>
    <path d="M 485.902872 171.899215 
L 485.902872 133.718014 
L 485.902872 171.899215 
z
" clip-path="url(#p75b5d6b79f)" style="fill: #698497"/>
    <path d="M 485.902872 133.718014 
L 378.097128 133.718014 
L 485.902872 133.718014 
z
" clip-path="url(#p75b5d6b79f)" style="fill: #698497"/>
    <path d="M 485.902872 133.718014 
L 378.097128 133.718014 
L 378.097128 133.718014 
z
" clip-path="url(#p75b5d6b79f)" style="fill: #698497"/>
    <path d="M 378.097128 171.899215 
L 378.097128 133.718014 
L 378.097128 133.718014 
z
" clip-path="url(#p75b5d6b79f)" style="fill: #698497"/>
    <path d="M 378.097128 171.899215 
L 378.097128 171.899215 
L 378.097128 133.718014 
z
" clip-path="url(#p75b5d6b79f)" style="fill: #698497"/>
    <path d="M 494.886684 241.523759 
L 485.902872 241.523759 
L 494.886684 241.523759 
z
" clip-path="url(#p75b5d6b79f)" style="fill: #698497"/>
    <path d="M 494.886684 241.523759 
L 485.902872 241.523759 
L 485.902872 241.523759 
z
" clip-path="url(#p75b5d6b79f)" style="fill: #698497"/>
    <path d="M 494.886684 241.523759 
L 494.886684 210.978798 
L 494.886684 210.978798 
z
" clip-path="url(#p75b5d6b79f)" style="fill: #698497"/>
    <path d="M 494.886684 241.523759 
L 494.886684 241.523759 
L 494.886684 210.978798 
z
" clip-path="url(#p75b5d6b79f)" style="fill: #698497"/>
    <path d="M 494.886684 210.978798 
L 485.902872 210.978798 
L 485.902872 241.523759 
z
" clip-path="url(#p75b5d6b79f)" style="fill: #698497"/>
    <path d="M 494.886684 210.978798 
L 485.902872 241.523759 
L 494.886684 241.523759 
z
" clip-path="url(#p75b5d6b79f)" style="fill: #698497"/>
    <path d="M 485.902872 241.523759 
L 485.902872 210.978798 
L 485.902872 241.523759 
z
" clip-path="url(#p75b5d6b79f)" style="fill: #698497"/>
    <path d="M 485.902872 241.523759 
L 485.902872 210.978798 
L 485.902872 210.978798 
z
" clip-path="url(#p75b5d6b79f)" style="fill: #698497"/>
    <path d="M 494.886684 210.978798 
L 485.902872 241.523759 
L 485.902872 210.978798 
z
" clip-path="url(#p75b5d6b79f)" style="fill: #698497"/>
    <path d="M 494.886684 210.978798 
L 494.886684 241.523759 
L 485.902872 241.523759 
z
" clip-path="url(#p75b5d6b79f)" style="fill: #698497"/>
    <path d="M 494.886684 210.978798 
L 494.886684 210.978798 
L 485.902872 210.978798 
z
" clip-path="url(#p75b5d6b79f)" style="fill: #698497"/>
    <path d="M 494.886684 210.978798 
L 485.902872 210.978798 
L 485.902872 210.978798 
z
" clip-path="url(#p75b5d6b79f)" style="fill: #698497"/>
   </g>
   <g id="PolyCollection_4">
    <path d="M 378.097128 308.902349 
L 378.097128 286.442819 
L 378.097128 308.902349 
z
" clip-path="url(#p75b5d6b79f)" style="fill: #e4b557"/>
    <path d="M 378.097128 308.902349 
L 378.097128 286.442819 
L 378.097128 286.442819 
z
" clip-path="url(#p75b5d6b79f)" style="fill: #e4b557"/>
    <path d="M 485.902872 308.902349 
L 378.097128 308.902349 
L 485.902872 308.902349 
z
" clip-path="url(#p75b5d6b79f)" style="fill: #e4b557"/>
    <path d="M 485.902872 308.902349 
L 378.097128 308.902349 
L 378.097128 308.902349 
z
" clip-path="url(#p75b5d6b79f)" style="fill: #e4b557"/>
    <path d="M 386.182558 286.442819 
L 378.097128 286.442819 
L 378.097128 308.902349 
z
" clip-path="url(#p75b5d6b79f)" style="fill: #e4b557"/>
    <path d="M 392.471227 286.442819 
L 386.182558 286.442819 
L 378.097128 308.902349 
z
" clip-path="url(#p75b5d6b79f)" style="fill: #e4b557"/>
    <path d="M 426.609713 286.442819 
L 392.471227 286.442819 
L 378.097128 308.902349 
z
" clip-path="url(#p75b5d6b79f)" style="fill: #e4b557"/>
    <path d="M 386.182558 210.080416 
L 386.182558 286.442819 
L 392.471227 286.442819 
z
" clip-path="url(#p75b5d6b79f)" style="fill: #e4b557"/>
    <path d="M 485.902872 308.902349 
L 426.609713 286.442819 
L 378.097128 308.902349 
z
" clip-path="url(#p75b5d6b79f)" style="fill: #e4b557"/>
    <path d="M 485.902872 308.902349 
L 437.390287 286.442819 
L 426.609713 286.442819 
z
" clip-path="url(#p75b5d6b79f)" style="fill: #e4b557"/>
    <path d="M 372.70684 194.358745 
L 372.70684 210.080416 
L 386.182558 210.080416 
z
" clip-path="url(#p75b5d6b79f)" style="fill: #e4b557"/>
    <path d="M 471.528773 286.442819 
L 437.390287 286.442819 
L 485.902872 308.902349 
z
" clip-path="url(#p75b5d6b79f)" style="fill: #e4b557"/>
    <path d="M 477.817442 286.442819 
L 471.528773 286.442819 
L 485.902872 308.902349 
z
" clip-path="url(#p75b5d6b79f)" style="fill: #e4b557"/>
    <path d="M 485.902872 286.442819 
L 477.817442 286.442819 
L 485.902872 308.902349 
z
" clip-path="url(#p75b5d6b79f)" style="fill: #e4b557"/>
    <path d="M 392.471227 174.145168 
L 386.182558 174.145168 
L 372.70684 194.358745 
z
" clip-path="url(#p75b5d6b79f)" style="fill: #e4b557"/>
    <path d="M 392.471227 174.145168 
L 372.70684 194.358745 
L 386.182558 210.080416 
z
" clip-path="url(#p75b5d6b79f)" style="fill: #e4b557"/>
    <path d="M 477.817442 210.080416 
L 471.528773 286.442819 
L 477.817442 286.442819 
z
" clip-path="url(#p75b5d6b79f)" style="fill: #e4b557"/>
    <path d="M 491.29316 194.358745 
L 477.817442 210.080416 
L 491.29316 210.080416 
z
" clip-path="url(#p75b5d6b79f)" style="fill: #e4b557"/>
    <path d="M 471.528773 174.145168 
L 477.817442 210.080416 
L 491.29316 194.358745 
z
" clip-path="url(#p75b5d6b79f)" style="fill: #e4b557"/>
    <path d="M 477.817442 174.145168 
L 471.528773 174.145168 
L 491.29316 194.358745 
z
" clip-path="url(#p75b5d6b79f)" style="fill: #e4b557"/>
    <path d="M 471.528773 174.145168 
L 471.528773 286.442819 
L 477.817442 210.080416 
z
" clip-path="url(#p75b5d6b79f)" style="fill: #e4b557"/>
    <path d="M 437.390287 286.442819 
L 437.390287 165.161356 
L 426.609713 286.442819 
z
" clip-path="url(#p75b5d6b79f)" style="fill: #e4b557"/>
    <path d="M 426.609713 165.161356 
L 426.609713 286.442819 
L 437.390287 165.161356 
z
" clip-path="url(#p75b5d6b79f)" style="fill: #e4b557"/>
    <path d="M 392.471227 286.442819 
L 392.471227 174.145168 
L 386.182558 210.080416 
z
" clip-path="url(#p75b5d6b79f)" style="fill: #e4b557"/>
    <path d="M 386.182558 286.442819 
L 386.182558 286.442819 
L 378.097128 286.442819 
z
" clip-path="url(#p75b5d6b79f)" style="fill: #e4b557"/>
    <path d="M 386.182558 286.442819 
L 378.097128 286.442819 
L 378.097128 286.442819 
z
" clip-path="url(#p75b5d6b79f)" style="fill: #e4b557"/>
    <path d="M 386.182558 286.442819 
L 378.097128 308.902349 
L 378.097128 286.442819 
z
" clip-path="url(#p75b5d6b79f)" style="fill: #e4b557"/>
    <path d="M 392.471227 286.442819 
L 378.097128 308.902349 
L 386.182558 286.442819 
z
" clip-path="url(#p75b5d6b79f)" style="fill: #e4b557"/>
    <path d="M 426.609713 286.442819 
L 378.097128 308.902349 
L 392.471227 286.442819 
z
" clip-path="url(#p75b5d6b79f)" style="fill: #e4b557"/>
    <path d="M 386.182558 210.080416 
L 392.471227 286.442819 
L 386.182558 286.442819 
z
" clip-path="url(#p75b5d6b79f)" style="fill: #e4b557"/>
    <path d="M 485.902872 308.902349 
L 378.097128 308.902349 
L 426.609713 286.442819 
z
" clip-path="url(#p75b5d6b79f)" style="fill: #e4b557"/>
    <path d="M 485.902872 308.902349 
L 426.609713 286.442819 
L 437.390287 286.442819 
z
" clip-path="url(#p75b5d6b79f)" style="fill: #e4b557"/>
    <path d="M 372.70684 194.358745 
L 386.182558 210.080416 
L 372.70684 210.080416 
z
" clip-path="url(#p75b5d6b79f)" style="fill: #e4b557"/>
    <path d="M 471.528773 286.442819 
L 485.902872 308.902349 
L 437.390287 286.442819 
z
" clip-path="url(#p75b5d6b79f)" style="fill: #e4b557"/>
    <path d="M 477.817442 286.442819 
L 485.902872 308.902349 
L 471.528773 286.442819 
z
" clip-path="url(#p75b5d6b79f)" style="fill: #e4b557"/>
    <path d="M 485.902872 286.442819 
L 485.902872 308.902349 
L 477.817442 286.442819 
z
" clip-path="url(#p75b5d6b79f)" style="fill: #e4b557"/>
    <path d="M 392.471227 174.145168 
L 372.70684 194.358745 
L 386.182558 174.145168 
z
" clip-path="url(#p75b5d6b79f)" style="fill: #e4b557"/>
    <path d="M 392.471227 174.145168 
L 386.182558 210.080416 
L 372.70684 194.358745 
z
" clip-path="url(#p75b5d6b79f)" style="fill: #e4b557"/>
    <path d="M 477.817442 210.080416 
L 477.817442 286.442819 
L 471.528773 286.442819 
z
" clip-path="url(#p75b5d6b79f)" style="fill: #e4b557"/>
    <path d="M 491.29316 194.358745 
L 491.29316 210.080416 
L 477.817442 210.080416 
z
" clip-path="url(#p75b5d6b79f)" style="fill: #e4b557"/>
    <path d="M 471.528773 174.145168 
L 491.29316 194.358745 
L 477.817442 210.080416 
z
" clip-path="url(#p75b5d6b79f)" style="fill: #e4b557"/>
    <path d="M 477.817442 174.145168 
L 491.29316 194.358745 
L 471.528773 174.145168 
z
" clip-path="url(#p75b5d6b79f)" style="fill: #e4b557"/>
    <path d="M 471.528773 174.145168 
L 477.817442 210.080416 
L 471.528773 286.442819 
z
" clip-path="url(#p75b5d6b79f)" style="fill: #e4b557"/>
    <path d="M 437.390287 286.442819 
L 426.609713 286.442819 
L 437.390287 165.161356 
z
" clip-path="url(#p75b5d6b79f)" style="fill: #e4b557"/>
    <path d="M 426.609713 165.161356 
L 437.390287 165.161356 
L 426.609713 286.442819 
z
" clip-path="url(#p75b5d6b79f)" style="fill: #e4b557"/>
    <path d="M 392.471227 286.442819 
L 386.182558 210.080416 
L 392.471227 174.145168 
z
" clip-path="url(#p75b5d6b79f)" style="fill: #e4b557"/>
    <path d="M 485.902872 308.902349 
L 485.902872 308.902349 
L 485.902872 286.442819 
z
" clip-path="url(#p75b5d6b79f)" style="fill: #e4b557"/>
    <path d="M 485.902872 308.902349 
L 485.902872 286.442819 
L 485.902872 286.442819 
z
" clip-path="url(#p75b5d6b79f)" style="fill: #e4b557"/>
    <path d="M 386.182558 286.442819 
L 386.182558 210.080416 
L 386.182558 286.442819 
z
" clip-path="url(#p75b5d6b79f)" style="fill: #e4b557"/>
    <path d="M 386.182558 286.442819 
L 386.182558 210.080416 
L 386.182558 210.080416 
z
" clip-path="url(#p75b5d6b79f)" style="fill: #e4b557"/>
    <path d="M 372.70684 210.080416 
L 386.182558 210.080416 
L 386.182558 210.080416 
z
" clip-path="url(#p75b5d6b79f)" style="fill: #e4b557"/>
    <path d="M 372.70684 210.080416 
L 386.182558 210.080416 
L 372.70684 210.080416 
z
" clip-path="url(#p75b5d6b79f)" style="fill: #e4b557"/>
    <path d="M 372.70684 194.358745 
L 372.70684 210.080416 
L 372.70684 210.080416 
z
" clip-path="url(#p75b5d6b79f)" style="fill: #e4b557"/>
    <path d="M 372.70684 194.358745 
L 372.70684 210.080416 
L 372.70684 194.358745 
z
" clip-path="url(#p75b5d6b79f)" style="fill: #e4b557"/>
    <path d="M 386.182558 174.145168 
L 372.70684 194.358745 
L 372.70684 194.358745 
z
" clip-path="url(#p75b5d6b79f)" style="fill: #e4b557"/>
    <path d="M 386.182558 174.145168 
L 372.70684 194.358745 
L 386.182558 174.145168 
z
" clip-path="url(#p75b5d6b79f)" style="fill: #e4b557"/>
    <path d="M 392.471227 174.145168 
L 386.182558 174.145168 
L 386.182558 174.145168 
z
" clip-path="url(#p75b5d6b79f)" style="fill: #e4b557"/>
    <path d="M 392.471227 174.145168 
L 386.182558 174.145168 
L 392.471227 174.145168 
z
" clip-path="url(#p75b5d6b79f)" style="fill: #e4b557"/>
    <path d="M 392.471227 286.442819 
L 392.471227 174.145168 
L 392.471227 174.145168 
z
" clip-path="url(#p75b5d6b79f)" style="fill: #e4b557"/>
    <path d="M 392.471227 286.442819 
L 392.471227 286.442819 
L 392.471227 174.145168 
z
" clip-path="url(#p75b5d6b79f)" style="fill: #e4b557"/>
    <path d="M 426.609713 286.442819 
L 426.609713 286.442819 
L 392.471227 286.442819 
z
" clip-path="url(#p75b5d6b79f)" style="fill: #e4b557"/>
    <path d="M 426.609713 286.442819 
L 392.471227 286.442819 
L 392.471227 286.442819 
z
" clip-path="url(#p75b5d6b79f)" style="fill: #e4b557"/>
    <path d="M 426.609713 286.442819 
L 426.609713 165.161356 
L 426.609713 286.442819 
z
" clip-path="url(#p75b5d6b79f)" style="fill: #e4b557"/>
    <path d="M 426.609713 286.442819 
L 426.609713 165.161356 
L 426.609713 165.161356 
z
" clip-path="url(#p75b5d6b79f)" style="fill: #e4b557"/>
    <path d="M 437.390287 165.161356 
L 437.390287 165.161356 
L 426.609713 165.161356 
z
" clip-path="url(#p75b5d6b79f)" style="fill: #e4b557"/>
    <path d="M 437.390287 165.161356 
L 426.609713 165.161356 
L 426.609713 165.161356 
z
" clip-path="url(#p75b5d6b79f)" style="fill: #e4b557"/>
    <path d="M 437.390287 286.442819 
L 437.390287 286.442819 
L 437.390287 165.161356 
z
" clip-path="url(#p75b5d6b79f)" style="fill: #e4b557"/>
    <path d="M 437.390287 286.442819 
L 437.390287 165.161356 
L 437.390287 165.161356 
z
" clip-path="url(#p75b5d6b79f)" style="fill: #e4b557"/>
    <path d="M 471.528773 286.442819 
L 437.390287 286.442819 
L 437.390287 286.442819 
z
" clip-path="url(#p75b5d6b79f)" style="fill: #e4b557"/>
    <path d="M 471.528773 286.442819 
L 471.528773 286.442819 
L 437.390287 286.442819 
z
" clip-path="url(#p75b5d6b79f)" style="fill: #e4b557"/>
    <path d="M 471.528773 286.442819 
L 471.528773 174.145168 
L 471.528773 174.145168 
z
" clip-path="url(#p75b5d6b79f)" style="fill: #e4b557"/>
    <path d="M 471.528773 286.442819 
L 471.528773 286.442819 
L 471.528773 174.145168 
z
" clip-path="url(#p75b5d6b79f)" style="fill: #e4b557"/>
    <path d="M 477.817442 174.145168 
L 471.528773 174.145168 
L 471.528773 174.145168 
z
" clip-path="url(#p75b5d6b79f)" style="fill: #e4b557"/>
    <path d="M 477.817442 174.145168 
L 471.528773 174.145168 
L 477.817442 174.145168 
z
" clip-path="url(#p75b5d6b79f)" style="fill: #e4b557"/>
    <path d="M 491.29316 194.358745 
L 477.817442 174.145168 
L 477.817442 174.145168 
z
" clip-path="url(#p75b5d6b79f)" style="fill: #e4b557"/>
    <path d="M 491.29316 194.358745 
L 477.817442 174.145168 
L 491.29316 194.358745 
z
" clip-path="url(#p75b5d6b79f)" style="fill: #e4b557"/>
    <path d="M 491.29316 210.080416 
L 491.29316 194.358745 
L 491.29316 194.358745 
z
" clip-path="url(#p75b5d6b79f)" style="fill: #e4b557"/>
    <path d="M 491.29316 210.080416 
L 491.29316 194.358745 
L 491.29316 210.080416 
z
" clip-path="url(#p75b5d6b79f)" style="fill: #e4b557"/>
    <path d="M 477.817442 210.080416 
L 491.29316 210.080416 
L 491.29316 210.080416 
z
" clip-path="url(#p75b5d6b79f)" style="fill: #e4b557"/>
    <path d="M 477.817442 210.080416 
L 491.29316 210.080416 
L 477.817442 210.080416 
z
" clip-path="url(#p75b5d6b79f)" style="fill: #e4b557"/>
    <path d="M 477.817442 286.442819 
L 477.817442 210.080416 
L 477.817442 286.442819 
z
" clip-path="url(#p75b5d6b79f)" style="fill: #e4b557"/>
    <path d="M 477.817442 286.442819 
L 477.817442 210.080416 
L 477.817442 210.080416 
z
" clip-path="url(#p75b5d6b79f)" style="fill: #e4b557"/>
    <path d="M 485.902872 286.442819 
L 477.817442 286.442819 
L 477.817442 286.442819 
z
" clip-path="url(#p75b5d6b79f)" style="fill: #e4b557"/>
    <path d="M 485.902872 286.442819 
L 485.902872 286.442819 
L 477.817442 286.442819 
z
" clip-path="url(#p75b5d6b79f)" style="fill: #e4b557"/>
   </g>
   <g id="text_4">
    <!-- B -->
    <g transform="translate(428.189063 118.509765) scale(0.1 -0.1)">
     <use xlink:href="#DejaVuSans-Bold-42"/>
    </g>
   </g>
   <g id="text_5">
    <!-- A -->
    <g transform="translate(428.130469 300.431959) scale(0.1 -0.1)">
     <use xlink:href="#DejaVuSans-Bold-41"/>
    </g>
   </g>
   <g id="patch_3">
    <path d="M 339.665889 210.080416 
Q 355.635024 210.080416 368.809075 210.080416 
" style="fill: none; stroke: #30394a; stroke-width: 2.5; stroke-linecap: round"/>
    <path d="M 364.809075 208.080416 
L 368.809075 210.080416 
L 364.809075 212.080416 
" style="fill: none; stroke: #30394a; stroke-width: 2.5; stroke-linecap: round"/>
   </g>
   <g id="patch_4">
    <path d="M 524.334111 210.080416 
Q 508.364976 210.080416 495.190925 210.080416 
" style="fill: none; stroke: #30394a; stroke-width: 2.5; stroke-linecap: round"/>
    <path d="M 499.190925 212.080416 
L 495.190925 210.080416 
L 499.190925 208.080416 
" style="fill: none; stroke: #30394a; stroke-width: 2.5; stroke-linecap: round"/>
   </g>
   <g id="text_6">
    <!-- Shoulders catch here -->
    <g transform="translate(378.994531 362.805222) scale(0.1 -0.1)">
     <defs>
      <path id="DejaVuSans-53" d="M 3425 4513 
L 3425 3897 
Q 3066 4069 2747 4153 
Q 2428 4238 2131 4238 
Q 1616 4238 1336 4038 
Q 1056 3838 1056 3469 
Q 1056 3159 1242 3001 
Q 1428 2844 1947 2747 
L 2328 2669 
Q 3034 2534 3370 2195 
Q 3706 1856 3706 1288 
Q 3706 609 3251 259 
Q 2797 -91 1919 -91 
Q 1588 -91 1214 -16 
Q 841 59 441 206 
L 441 856 
Q 825 641 1194 531 
Q 1563 422 1919 422 
Q 2459 422 2753 634 
Q 3047 847 3047 1241 
Q 3047 1584 2836 1778 
Q 2625 1972 2144 2069 
L 1759 2144 
Q 1053 2284 737 2584 
Q 422 2884 422 3419 
Q 422 4038 858 4394 
Q 1294 4750 2059 4750 
Q 2388 4750 2728 4690 
Q 3069 4631 3425 4513 
z
" transform="scale(0.015625)"/>
      <path id="DejaVuSans-6f" d="M 1959 3097 
Q 1497 3097 1228 2736 
Q 959 2375 959 1747 
Q 959 1119 1226 758 
Q 1494 397 1959 397 
Q 2419 397 2687 759 
Q 2956 1122 2956 1747 
Q 2956 2369 2687 2733 
Q 2419 3097 1959 3097 
z
M 1959 3584 
Q 2709 3584 3137 3096 
Q 3566 2609 3566 1747 
Q 3566 888 3137 398 
Q 2709 -91 1959 -91 
Q 1206 -91 779 398 
Q 353 888 353 1747 
Q 353 2609 779 3096 
Q 1206 3584 1959 3584 
z
" transform="scale(0.015625)"/>
      <path id="DejaVuSans-6c" d="M 603 4863 
L 1178 4863 
L 1178 0 
L 603 0 
L 603 4863 
z
" transform="scale(0.015625)"/>
      <path id="DejaVuSans-64" d="M 2906 2969 
L 2906 4863 
L 3481 4863 
L 3481 0 
L 2906 0 
L 2906 525 
Q 2725 213 2448 61 
Q 2172 -91 1784 -91 
Q 1150 -91 751 415 
Q 353 922 353 1747 
Q 353 2572 751 3078 
Q 1150 3584 1784 3584 
Q 2172 3584 2448 3432 
Q 2725 3281 2906 2969 
z
M 947 1747 
Q 947 1113 1208 752 
Q 1469 391 1925 391 
Q 2381 391 2643 752 
Q 2906 1113 2906 1747 
Q 2906 2381 2643 2742 
Q 2381 3103 1925 3103 
Q 1469 3103 1208 2742 
Q 947 2381 947 1747 
z
" transform="scale(0.015625)"/>
      <path id="DejaVuSans-72" d="M 2631 2963 
Q 2534 3019 2420 3045 
Q 2306 3072 2169 3072 
Q 1681 3072 1420 2755 
Q 1159 2438 1159 1844 
L 1159 0 
L 581 0 
L 581 3500 
L 1159 3500 
L 1159 2956 
Q 1341 3275 1631 3429 
Q 1922 3584 2338 3584 
Q 2397 3584 2469 3576 
Q 2541 3569 2628 3553 
L 2631 2963 
z
" transform="scale(0.015625)"/>
      <path id="DejaVuSans-73" d="M 2834 3397 
L 2834 2853 
Q 2591 2978 2328 3040 
Q 2066 3103 1784 3103 
Q 1356 3103 1142 2972 
Q 928 2841 928 2578 
Q 928 2378 1081 2264 
Q 1234 2150 1697 2047 
L 1894 2003 
Q 2506 1872 2764 1633 
Q 3022 1394 3022 966 
Q 3022 478 2636 193 
Q 2250 -91 1575 -91 
Q 1294 -91 989 -36 
Q 684 19 347 128 
L 347 722 
Q 666 556 975 473 
Q 1284 391 1588 391 
Q 1994 391 2212 530 
Q 2431 669 2431 922 
Q 2431 1156 2273 1281 
Q 2116 1406 1581 1522 
L 1381 1569 
Q 847 1681 609 1914 
Q 372 2147 372 2553 
Q 372 3047 722 3315 
Q 1072 3584 1716 3584 
Q 2034 3584 2315 3537 
Q 2597 3491 2834 3397 
z
" transform="scale(0.015625)"/>
      <path id="DejaVuSans-63" d="M 3122 3366 
L 3122 2828 
Q 2878 2963 2633 3030 
Q 2388 3097 2138 3097 
Q 1578 3097 1268 2742 
Q 959 2388 959 1747 
Q 959 1106 1268 751 
Q 1578 397 2138 397 
Q 2388 397 2633 464 
Q 2878 531 3122 666 
L 3122 134 
Q 2881 22 2623 -34 
Q 2366 -91 2075 -91 
Q 1284 -91 818 406 
Q 353 903 353 1747 
Q 353 2603 823 3093 
Q 1294 3584 2113 3584 
Q 2378 3584 2631 3529 
Q 2884 3475 3122 3366 
z
" transform="scale(0.015625)"/>
      <path id="DejaVuSans-61" d="M 2194 1759 
Q 1497 1759 1228 1600 
Q 959 1441 959 1056 
Q 959 750 1161 570 
Q 1363 391 1709 391 
Q 2188 391 2477 730 
Q 2766 1069 2766 1631 
L 2766 1759 
L 2194 1759 
z
M 3341 1997 
L 3341 0 
L 2766 0 
L 2766 531 
Q 2569 213 2275 61 
Q 1981 -91 1556 -91 
Q 1019 -91 701 211 
Q 384 513 384 1019 
Q 384 1609 779 1909 
Q 1175 2209 1959 2209 
L 2766 2209 
L 2766 2266 
Q 2766 2663 2505 2880 
Q 2244 3097 1772 3097 
Q 1472 3097 1187 3025 
Q 903 2953 641 2809 
L 641 3341 
Q 956 3463 1253 3523 
Q 1550 3584 1831 3584 
Q 2591 3584 2966 3190 
Q 3341 2797 3341 1997 
z
" transform="scale(0.015625)"/>
     </defs>
     <use xlink:href="#DejaVuSans-53"/>
     <use xlink:href="#DejaVuSans-68" transform="translate(63.476562 0)"/>
     <use xlink:href="#DejaVuSans-6f" transform="translate(126.855469 0)"/>
     <use xlink:href="#DejaVuSans-75" transform="translate(188.037109 0)"/>
     <use xlink:href="#DejaVuSans-6c" transform="translate(251.416016 0)"/>
     <use xlink:href="#DejaVuSans-64" transform="translate(279.199219 0)"/>
     <use xlink:href="#DejaVuSans-65" transform="translate(342.675781 0)"/>
     <use xlink:href="#DejaVuSans-72" transform="translate(404.199219 0)"/>
     <use xlink:href="#DejaVuSans-73" transform="translate(445.3125 0)"/>
     <use xlink:href="#DejaVuSans-20" transform="translate(497.412109 0)"/>
     <use xlink:href="#DejaVuSans-63" transform="translate(529.199219 0)"/>
     <use xlink:href="#DejaVuSans-61" transform="translate(584.179688 0)"/>
     <use xlink:href="#DejaVuSans-74" transform="translate(645.458984 0)"/>
     <use xlink:href="#DejaVuSans-63" transform="translate(684.667969 0)"/>
     <use xlink:href="#DejaVuSans-68" transform="translate(739.648438 0)"/>
     <use xlink:href="#DejaVuSans-20" transform="translate(803.027344 0)"/>
     <use xlink:href="#DejaVuSans-68" transform="translate(834.814453 0)"/>
     <use xlink:href="#DejaVuSans-65" transform="translate(898.193359 0)"/>
     <use xlink:href="#DejaVuSans-72" transform="translate(959.716797 0)"/>
     <use xlink:href="#DejaVuSans-65" transform="translate(998.580078 0)"/>
    </g>
   </g>
   <g id="text_7">
    <!-- 2  Push until both sides click -->
    <g transform="translate(346.746563 59.323235) scale(0.12 -0.12)">
     <defs>
      <path id="DejaVuSans-32" d="M 1228 531 
L 3431 531 
L 3431 0 
L 469 0 
L 469 531 
Q 828 903 1448 1529 
Q 2069 2156 2228 2338 
Q 2531 2678 2651 2914 
Q 2772 3150 2772 3378 
Q 2772 3750 2511 3984 
Q 2250 4219 1831 4219 
Q 1534 4219 1204 4116 
Q 875 4013 500 3803 
L 500 4441 
Q 881 4594 1212 4672 
Q 1544 4750 1819 4750 
Q 2544 4750 2975 4387 
Q 3406 4025 3406 3419 
Q 3406 3131 3298 2873 
Q 3191 2616 2906 2266 
Q 2828 2175 2409 1742 
Q 1991 1309 1228 531 
z
" transform="scale(0.015625)"/>
      <path id="DejaVuSans-50" d="M 1259 4147 
L 1259 2394 
L 2053 2394 
Q 2494 2394 2734 2622 
Q 2975 2850 2975 3272 
Q 2975 3691 2734 3919 
Q 2494 4147 2053 4147 
L 1259 4147 
z
M 628 4666 
L 2053 4666 
Q 2838 4666 3239 4311 
Q 3641 3956 3641 3272 
Q 3641 2581 3239 2228 
Q 2838 1875 2053 1875 
L 1259 1875 
L 1259 0 
L 628 0 
L 628 4666 
z
" transform="scale(0.015625)"/>
      <path id="DejaVuSans-62" d="M 3116 1747 
Q 3116 2381 2855 2742 
Q 2594 3103 2138 3103 
Q 1681 3103 1420 2742 
Q 1159 2381 1159 1747 
Q 1159 1113 1420 752 
Q 1681 391 2138 391 
Q 2594 391 2855 752 
Q 3116 1113 3116 1747 
z
M 1159 2969 
Q 1341 3281 1617 3432 
Q 1894 3584 2278 3584 
Q 2916 3584 3314 3078 
Q 3713 2572 3713 1747 
Q 3713 922 3314 415 
Q 2916 -91 2278 -91 
Q 1894 -91 1617 61 
Q 1341 213 1159 525 
L 1159 0 
L 581 0 
L 581 4863 
L 1159 4863 
L 1159 2969 
z
" transform="scale(0.015625)"/>
      <path id="DejaVuSans-6b" d="M 581 4863 
L 1159 4863 
L 1159 1991 
L 2875 3500 
L 3609 3500 
L 1753 1863 
L 3688 0 
L 2938 0 
L 1159 1709 
L 1159 0 
L 581 0 
L 581 4863 
z
" transform="scale(0.015625)"/>
     </defs>
     <use xlink:href="#DejaVuSans-32"/>
     <use xlink:href="#DejaVuSans-20" transform="translate(63.623047 0)"/>
     <use xlink:href="#DejaVuSans-20" transform="translate(95.410156 0)"/>
     <use xlink:href="#DejaVuSans-50" transform="translate(127.197266 0)"/>
     <use xlink:href="#DejaVuSans-75" transform="translate(185.75 0)"/>
     <use xlink:href="#DejaVuSans-73" transform="translate(249.128906 0)"/>
     <use xlink:href="#DejaVuSans-68" transform="translate(301.228516 0)"/>
     <use xlink:href="#DejaVuSans-20" transform="translate(364.607422 0)"/>
     <use xlink:href="#DejaVuSans-75" transform="translate(396.394531 0)"/>
     <use xlink:href="#DejaVuSans-6e" transform="translate(459.773438 0)"/>
     <use xlink:href="#DejaVuSans-74" transform="translate(523.152344 0)"/>
     <use xlink:href="#DejaVuSans-69" transform="translate(562.361328 0)"/>
     <use xlink:href="#DejaVuSans-6c" transform="translate(590.144531 0)"/>
     <use xlink:href="#DejaVuSans-20" transform="translate(617.927734 0)"/>
     <use xlink:href="#DejaVuSans-62" transform="translate(649.714844 0)"/>
     <use xlink:href="#DejaVuSans-6f" transform="translate(713.191406 0)"/>
     <use xlink:href="#DejaVuSans-74" transform="translate(774.373047 0)"/>
     <use xlink:href="#DejaVuSans-68" transform="translate(813.582031 0)"/>
     <use xlink:href="#DejaVuSans-20" transform="translate(876.960938 0)"/>
     <use xlink:href="#DejaVuSans-73" transform="translate(908.748047 0)"/>
     <use xlink:href="#DejaVuSans-69" transform="translate(960.847656 0)"/>
     <use xlink:href="#DejaVuSans-64" transform="translate(988.630859 0)"/>
     <use xlink:href="#DejaVuSans-65" transform="translate(1052.107422 0)"/>
     <use xlink:href="#DejaVuSans-73" transform="translate(1113.630859 0)"/>
     <use xlink:href="#DejaVuSans-20" transform="translate(1165.730469 0)"/>
     <use xlink:href="#DejaVuSans-63" transform="translate(1197.517578 0)"/>
     <use xlink:href="#DejaVuSans-6c" transform="translate(1252.498047 0)"/>
     <use xlink:href="#DejaVuSans-69" transform="translate(1280.28125 0)"/>
     <use xlink:href="#DejaVuSans-63" transform="translate(1308.064453 0)"/>
     <use xlink:href="#DejaVuSans-6b" transform="translate(1363.044922 0)"/>
    </g>
   </g>
  </g>
  <g id="axes_3">
   <g id="PolyCollection_5">
    <path d="M 653.513316 241.523759 
L 653.513316 210.978798 
L 653.513316 210.978798 
z
" clip-path="url(#pdb65ee0d7a)" style="fill: #698497"/>
    <path d="M 653.513316 241.523759 
L 653.513316 210.978798 
L 653.513316 241.523759 
z
" clip-path="url(#pdb65ee0d7a)" style="fill: #698497"/>
    <path d="M 662.497128 241.523759 
L 653.513316 241.523759 
L 662.497128 241.523759 
z
" clip-path="url(#pdb65ee0d7a)" style="fill: #698497"/>
    <path d="M 662.497128 241.523759 
L 653.513316 241.523759 
L 653.513316 241.523759 
z
" clip-path="url(#pdb65ee0d7a)" style="fill: #698497"/>
    <path d="M 662.497128 210.978798 
L 653.513316 210.978798 
L 653.513316 241.523759 
z
" clip-path="url(#pdb65ee0d7a)" style="fill: #698497"/>
    <path d="M 662.497128 210.978798 
L 653.513316 241.523759 
L 662.497128 241.523759 
z
" clip-path="url(#pdb65ee0d7a)" style="fill: #698497"/>
    <path d="M 662.497128 210.978798 
L 653.513316 210.978798 
L 653.513316 210.978798 
z
" clip-path="url(#pdb65ee0d7a)" style="fill: #698497"/>
    <path d="M 662.497128 210.978798 
L 662.497128 210.978798 
L 653.513316 210.978798 
z
" clip-path="url(#pdb65ee0d7a)" style="fill: #698497"/>
    <path d="M 662.497128 210.978798 
L 653.513316 241.523759 
L 653.513316 210.978798 
z
" clip-path="url(#pdb65ee0d7a)" style="fill: #698497"/>
    <path d="M 662.497128 210.978798 
L 662.497128 241.523759 
L 653.513316 241.523759 
z
" clip-path="url(#pdb65ee0d7a)" style="fill: #698497"/>
    <path d="M 662.497128 241.523759 
L 662.497128 241.523759 
L 662.497128 210.978798 
z
" clip-path="url(#pdb65ee0d7a)" style="fill: #698497"/>
    <path d="M 662.497128 241.523759 
L 662.497128 210.978798 
L 662.497128 210.978798 
z
" clip-path="url(#pdb65ee0d7a)" style="fill: #698497"/>
    <path d="M 653.513316 171.899215 
L 653.513316 102.274672 
L 653.513316 171.899215 
z
" clip-path="url(#pdb65ee0d7a)" style="fill: #698497"/>
    <path d="M 653.513316 171.899215 
L 653.513316 102.274672 
L 653.513316 102.274672 
z
" clip-path="url(#pdb65ee0d7a)" style="fill: #698497"/>
    <path d="M 662.497128 133.718014 
L 662.497128 171.899215 
L 653.513316 171.899215 
z
" clip-path="url(#pdb65ee0d7a)" style="fill: #698497"/>
    <path d="M 653.513316 102.274672 
L 662.497128 133.718014 
L 653.513316 171.899215 
z
" clip-path="url(#pdb65ee0d7a)" style="fill: #698497"/>
    <path d="M 770.302872 133.718014 
L 779.286684 171.899215 
L 770.302872 171.899215 
z
" clip-path="url(#pdb65ee0d7a)" style="fill: #698497"/>
    <path d="M 770.302872 133.718014 
L 662.497128 133.718014 
L 653.513316 102.274672 
z
" clip-path="url(#pdb65ee0d7a)" style="fill: #698497"/>
    <path d="M 779.286684 102.274672 
L 779.286684 171.899215 
L 770.302872 133.718014 
z
" clip-path="url(#pdb65ee0d7a)" style="fill: #698497"/>
    <path d="M 779.286684 102.274672 
L 770.302872 133.718014 
L 653.513316 102.274672 
z
" clip-path="url(#pdb65ee0d7a)" style="fill: #698497"/>
    <path d="M 662.497128 171.899215 
L 653.513316 171.899215 
L 653.513316 171.899215 
z
" clip-path="url(#pdb65ee0d7a)" style="fill: #698497"/>
    <path d="M 662.497128 171.899215 
L 653.513316 171.899215 
L 662.497128 171.899215 
z
" clip-path="url(#pdb65ee0d7a)" style="fill: #698497"/>
    <path d="M 662.497128 133.718014 
L 653.513316 171.899215 
L 662.497128 171.899215 
z
" clip-path="url(#pdb65ee0d7a)" style="fill: #698497"/>
    <path d="M 653.513316 102.274672 
L 653.513316 171.899215 
L 662.497128 133.718014 
z
" clip-path="url(#pdb65ee0d7a)" style="fill: #698497"/>
    <path d="M 770.302872 133.718014 
L 770.302872 171.899215 
L 779.286684 171.899215 
z
" clip-path="url(#pdb65ee0d7a)" style="fill: #698497"/>
    <path d="M 770.302872 133.718014 
L 653.513316 102.274672 
L 662.497128 133.718014 
z
" clip-path="url(#pdb65ee0d7a)" style="fill: #698497"/>
    <path d="M 779.286684 102.274672 
L 770.302872 133.718014 
L 779.286684 171.899215 
z
" clip-path="url(#pdb65ee0d7a)" style="fill: #698497"/>
    <path d="M 779.286684 102.274672 
L 653.513316 102.274672 
L 770.302872 133.718014 
z
" clip-path="url(#pdb65ee0d7a)" style="fill: #698497"/>
    <path d="M 779.286684 102.274672 
L 779.286684 102.274672 
L 653.513316 102.274672 
z
" clip-path="url(#pdb65ee0d7a)" style="fill: #698497"/>
    <path d="M 779.286684 102.274672 
L 653.513316 102.274672 
L 653.513316 102.274672 
z
" clip-path="url(#pdb65ee0d7a)" style="fill: #698497"/>
    <path d="M 779.286684 171.899215 
L 779.286684 171.899215 
L 779.286684 102.274672 
z
" clip-path="url(#pdb65ee0d7a)" style="fill: #698497"/>
    <path d="M 779.286684 171.899215 
L 779.286684 102.274672 
L 779.286684 102.274672 
z
" clip-path="url(#pdb65ee0d7a)" style="fill: #698497"/>
    <path d="M 779.286684 171.899215 
L 770.302872 171.899215 
L 779.286684 171.899215 
z
" clip-path="url(#pdb65ee0d7a)" style="fill: #698497"/>
    <path d="M 779.286684 171.899215 
L 770.302872 171.899215 
L 770.302872 171.899215 
z
" clip-path="url(#pdb65ee0d7a)" style="fill: #698497"/>
    <path d="M 770.302872 171.899215 
L 770.302872 133.718014 
L 770.302872 133.718014 
z
" clip-path="url(#pdb65ee0d7a)" style="fill: #698497"/>
    <path d="M 770.302872 171.899215 
L 770.302872 133.718014 
L 770.302872 171.899215 
z
" clip-path="url(#pdb65ee0d7a)" style="fill: #698497"/>
    <path d="M 770.302872 133.718014 
L 662.497128 133.718014 
L 770.302872 133.718014 
z
" clip-path="url(#pdb65ee0d7a)" style="fill: #698497"/>
    <path d="M 770.302872 133.718014 
L 662.497128 133.718014 
L 662.497128 133.718014 
z
" clip-path="url(#pdb65ee0d7a)" style="fill: #698497"/>
    <path d="M 662.497128 171.899215 
L 662.497128 133.718014 
L 662.497128 133.718014 
z
" clip-path="url(#pdb65ee0d7a)" style="fill: #698497"/>
    <path d="M 662.497128 171.899215 
L 662.497128 171.899215 
L 662.497128 133.718014 
z
" clip-path="url(#pdb65ee0d7a)" style="fill: #698497"/>
    <path d="M 779.286684 241.523759 
L 770.302872 241.523759 
L 779.286684 241.523759 
z
" clip-path="url(#pdb65ee0d7a)" style="fill: #698497"/>
    <path d="M 779.286684 241.523759 
L 770.302872 241.523759 
L 770.302872 241.523759 
z
" clip-path="url(#pdb65ee0d7a)" style="fill: #698497"/>
    <path d="M 779.286684 241.523759 
L 779.286684 210.978798 
L 779.286684 210.978798 
z
" clip-path="url(#pdb65ee0d7a)" style="fill: #698497"/>
    <path d="M 779.286684 241.523759 
L 779.286684 241.523759 
L 779.286684 210.978798 
z
" clip-path="url(#pdb65ee0d7a)" style="fill: #698497"/>
    <path d="M 779.286684 210.978798 
L 770.302872 210.978798 
L 770.302872 241.523759 
z
" clip-path="url(#pdb65ee0d7a)" style="fill: #698497"/>
    <path d="M 779.286684 210.978798 
L 770.302872 241.523759 
L 779.286684 241.523759 
z
" clip-path="url(#pdb65ee0d7a)" style="fill: #698497"/>
    <path d="M 770.302872 241.523759 
L 770.302872 210.978798 
L 770.302872 241.523759 
z
" clip-path="url(#pdb65ee0d7a)" style="fill: #698497"/>
    <path d="M 770.302872 241.523759 
L 770.302872 210.978798 
L 770.302872 210.978798 
z
" clip-path="url(#pdb65ee0d7a)" style="fill: #698497"/>
    <path d="M 779.286684 210.978798 
L 770.302872 241.523759 
L 770.302872 210.978798 
z
" clip-path="url(#pdb65ee0d7a)" style="fill: #698497"/>
    <path d="M 779.286684 210.978798 
L 779.286684 241.523759 
L 770.302872 241.523759 
z
" clip-path="url(#pdb65ee0d7a)" style="fill: #698497"/>
    <path d="M 779.286684 210.978798 
L 779.286684 210.978798 
L 770.302872 210.978798 
z
" clip-path="url(#pdb65ee0d7a)" style="fill: #698497"/>
    <path d="M 779.286684 210.978798 
L 770.302872 210.978798 
L 770.302872 210.978798 
z
" clip-path="url(#pdb65ee0d7a)" style="fill: #698497"/>
   </g>
   <g id="PolyCollection_6">
    <path d="M 662.497128 308.902349 
L 662.497128 286.442819 
L 662.497128 308.902349 
z
" clip-path="url(#pdb65ee0d7a)" style="fill: #e4b557"/>
    <path d="M 662.497128 308.902349 
L 662.497128 286.442819 
L 662.497128 286.442819 
z
" clip-path="url(#pdb65ee0d7a)" style="fill: #e4b557"/>
    <path d="M 770.302872 308.902349 
L 662.497128 308.902349 
L 770.302872 308.902349 
z
" clip-path="url(#pdb65ee0d7a)" style="fill: #e4b557"/>
    <path d="M 770.302872 308.902349 
L 662.497128 308.902349 
L 662.497128 308.902349 
z
" clip-path="url(#pdb65ee0d7a)" style="fill: #e4b557"/>
    <path d="M 670.582558 286.442819 
L 662.497128 286.442819 
L 662.497128 308.902349 
z
" clip-path="url(#pdb65ee0d7a)" style="fill: #e4b557"/>
    <path d="M 676.871227 286.442819 
L 670.582558 286.442819 
L 662.497128 308.902349 
z
" clip-path="url(#pdb65ee0d7a)" style="fill: #e4b557"/>
    <path d="M 711.009713 286.442819 
L 676.871227 286.442819 
L 662.497128 308.902349 
z
" clip-path="url(#pdb65ee0d7a)" style="fill: #e4b557"/>
    <path d="M 670.582558 210.080416 
L 670.582558 286.442819 
L 676.871227 286.442819 
z
" clip-path="url(#pdb65ee0d7a)" style="fill: #e4b557"/>
    <path d="M 770.302872 308.902349 
L 711.009713 286.442819 
L 662.497128 308.902349 
z
" clip-path="url(#pdb65ee0d7a)" style="fill: #e4b557"/>
    <path d="M 770.302872 308.902349 
L 721.790287 286.442819 
L 711.009713 286.442819 
z
" clip-path="url(#pdb65ee0d7a)" style="fill: #e4b557"/>
    <path d="M 657.10684 194.358745 
L 657.10684 210.080416 
L 670.582558 210.080416 
z
" clip-path="url(#pdb65ee0d7a)" style="fill: #e4b557"/>
    <path d="M 755.928773 286.442819 
L 721.790287 286.442819 
L 770.302872 308.902349 
z
" clip-path="url(#pdb65ee0d7a)" style="fill: #e4b557"/>
    <path d="M 762.217442 286.442819 
L 755.928773 286.442819 
L 770.302872 308.902349 
z
" clip-path="url(#pdb65ee0d7a)" style="fill: #e4b557"/>
    <path d="M 770.302872 286.442819 
L 762.217442 286.442819 
L 770.302872 308.902349 
z
" clip-path="url(#pdb65ee0d7a)" style="fill: #e4b557"/>
    <path d="M 676.871227 174.145168 
L 670.582558 174.145168 
L 657.10684 194.358745 
z
" clip-path="url(#pdb65ee0d7a)" style="fill: #e4b557"/>
    <path d="M 676.871227 174.145168 
L 657.10684 194.358745 
L 670.582558 210.080416 
z
" clip-path="url(#pdb65ee0d7a)" style="fill: #e4b557"/>
    <path d="M 762.217442 210.080416 
L 755.928773 286.442819 
L 762.217442 286.442819 
z
" clip-path="url(#pdb65ee0d7a)" style="fill: #e4b557"/>
    <path d="M 775.69316 194.358745 
L 762.217442 210.080416 
L 775.69316 210.080416 
z
" clip-path="url(#pdb65ee0d7a)" style="fill: #e4b557"/>
    <path d="M 755.928773 174.145168 
L 762.217442 210.080416 
L 775.69316 194.358745 
z
" clip-path="url(#pdb65ee0d7a)" style="fill: #e4b557"/>
    <path d="M 762.217442 174.145168 
L 755.928773 174.145168 
L 775.69316 194.358745 
z
" clip-path="url(#pdb65ee0d7a)" style="fill: #e4b557"/>
    <path d="M 755.928773 174.145168 
L 755.928773 286.442819 
L 762.217442 210.080416 
z
" clip-path="url(#pdb65ee0d7a)" style="fill: #e4b557"/>
    <path d="M 721.790287 286.442819 
L 721.790287 165.161356 
L 711.009713 286.442819 
z
" clip-path="url(#pdb65ee0d7a)" style="fill: #e4b557"/>
    <path d="M 711.009713 165.161356 
L 711.009713 286.442819 
L 721.790287 165.161356 
z
" clip-path="url(#pdb65ee0d7a)" style="fill: #e4b557"/>
    <path d="M 676.871227 286.442819 
L 676.871227 174.145168 
L 670.582558 210.080416 
z
" clip-path="url(#pdb65ee0d7a)" style="fill: #e4b557"/>
    <path d="M 670.582558 286.442819 
L 670.582558 286.442819 
L 662.497128 286.442819 
z
" clip-path="url(#pdb65ee0d7a)" style="fill: #e4b557"/>
    <path d="M 670.582558 286.442819 
L 662.497128 286.442819 
L 662.497128 286.442819 
z
" clip-path="url(#pdb65ee0d7a)" style="fill: #e4b557"/>
    <path d="M 670.582558 286.442819 
L 662.497128 308.902349 
L 662.497128 286.442819 
z
" clip-path="url(#pdb65ee0d7a)" style="fill: #e4b557"/>
    <path d="M 676.871227 286.442819 
L 662.497128 308.902349 
L 670.582558 286.442819 
z
" clip-path="url(#pdb65ee0d7a)" style="fill: #e4b557"/>
    <path d="M 711.009713 286.442819 
L 662.497128 308.902349 
L 676.871227 286.442819 
z
" clip-path="url(#pdb65ee0d7a)" style="fill: #e4b557"/>
    <path d="M 670.582558 210.080416 
L 676.871227 286.442819 
L 670.582558 286.442819 
z
" clip-path="url(#pdb65ee0d7a)" style="fill: #e4b557"/>
    <path d="M 770.302872 308.902349 
L 662.497128 308.902349 
L 711.009713 286.442819 
z
" clip-path="url(#pdb65ee0d7a)" style="fill: #e4b557"/>
    <path d="M 770.302872 308.902349 
L 711.009713 286.442819 
L 721.790287 286.442819 
z
" clip-path="url(#pdb65ee0d7a)" style="fill: #e4b557"/>
    <path d="M 657.10684 194.358745 
L 670.582558 210.080416 
L 657.10684 210.080416 
z
" clip-path="url(#pdb65ee0d7a)" style="fill: #e4b557"/>
    <path d="M 755.928773 286.442819 
L 770.302872 308.902349 
L 721.790287 286.442819 
z
" clip-path="url(#pdb65ee0d7a)" style="fill: #e4b557"/>
    <path d="M 762.217442 286.442819 
L 770.302872 308.902349 
L 755.928773 286.442819 
z
" clip-path="url(#pdb65ee0d7a)" style="fill: #e4b557"/>
    <path d="M 770.302872 286.442819 
L 770.302872 308.902349 
L 762.217442 286.442819 
z
" clip-path="url(#pdb65ee0d7a)" style="fill: #e4b557"/>
    <path d="M 676.871227 174.145168 
L 657.10684 194.358745 
L 670.582558 174.145168 
z
" clip-path="url(#pdb65ee0d7a)" style="fill: #e4b557"/>
    <path d="M 676.871227 174.145168 
L 670.582558 210.080416 
L 657.10684 194.358745 
z
" clip-path="url(#pdb65ee0d7a)" style="fill: #e4b557"/>
    <path d="M 762.217442 210.080416 
L 762.217442 286.442819 
L 755.928773 286.442819 
z
" clip-path="url(#pdb65ee0d7a)" style="fill: #e4b557"/>
    <path d="M 775.69316 194.358745 
L 775.69316 210.080416 
L 762.217442 210.080416 
z
" clip-path="url(#pdb65ee0d7a)" style="fill: #e4b557"/>
    <path d="M 755.928773 174.145168 
L 775.69316 194.358745 
L 762.217442 210.080416 
z
" clip-path="url(#pdb65ee0d7a)" style="fill: #e4b557"/>
    <path d="M 762.217442 174.145168 
L 775.69316 194.358745 
L 755.928773 174.145168 
z
" clip-path="url(#pdb65ee0d7a)" style="fill: #e4b557"/>
    <path d="M 755.928773 174.145168 
L 762.217442 210.080416 
L 755.928773 286.442819 
z
" clip-path="url(#pdb65ee0d7a)" style="fill: #e4b557"/>
    <path d="M 721.790287 286.442819 
L 711.009713 286.442819 
L 721.790287 165.161356 
z
" clip-path="url(#pdb65ee0d7a)" style="fill: #e4b557"/>
    <path d="M 711.009713 165.161356 
L 721.790287 165.161356 
L 711.009713 286.442819 
z
" clip-path="url(#pdb65ee0d7a)" style="fill: #e4b557"/>
    <path d="M 676.871227 286.442819 
L 670.582558 210.080416 
L 676.871227 174.145168 
z
" clip-path="url(#pdb65ee0d7a)" style="fill: #e4b557"/>
    <path d="M 770.302872 308.902349 
L 770.302872 308.902349 
L 770.302872 286.442819 
z
" clip-path="url(#pdb65ee0d7a)" style="fill: #e4b557"/>
    <path d="M 770.302872 308.902349 
L 770.302872 286.442819 
L 770.302872 286.442819 
z
" clip-path="url(#pdb65ee0d7a)" style="fill: #e4b557"/>
    <path d="M 670.582558 286.442819 
L 670.582558 210.080416 
L 670.582558 286.442819 
z
" clip-path="url(#pdb65ee0d7a)" style="fill: #e4b557"/>
    <path d="M 670.582558 286.442819 
L 670.582558 210.080416 
L 670.582558 210.080416 
z
" clip-path="url(#pdb65ee0d7a)" style="fill: #e4b557"/>
    <path d="M 657.10684 210.080416 
L 670.582558 210.080416 
L 670.582558 210.080416 
z
" clip-path="url(#pdb65ee0d7a)" style="fill: #e4b557"/>
    <path d="M 657.10684 210.080416 
L 670.582558 210.080416 
L 657.10684 210.080416 
z
" clip-path="url(#pdb65ee0d7a)" style="fill: #e4b557"/>
    <path d="M 657.10684 194.358745 
L 657.10684 210.080416 
L 657.10684 210.080416 
z
" clip-path="url(#pdb65ee0d7a)" style="fill: #e4b557"/>
    <path d="M 657.10684 194.358745 
L 657.10684 210.080416 
L 657.10684 194.358745 
z
" clip-path="url(#pdb65ee0d7a)" style="fill: #e4b557"/>
    <path d="M 670.582558 174.145168 
L 657.10684 194.358745 
L 657.10684 194.358745 
z
" clip-path="url(#pdb65ee0d7a)" style="fill: #e4b557"/>
    <path d="M 670.582558 174.145168 
L 657.10684 194.358745 
L 670.582558 174.145168 
z
" clip-path="url(#pdb65ee0d7a)" style="fill: #e4b557"/>
    <path d="M 676.871227 174.145168 
L 670.582558 174.145168 
L 670.582558 174.145168 
z
" clip-path="url(#pdb65ee0d7a)" style="fill: #e4b557"/>
    <path d="M 676.871227 174.145168 
L 670.582558 174.145168 
L 676.871227 174.145168 
z
" clip-path="url(#pdb65ee0d7a)" style="fill: #e4b557"/>
    <path d="M 676.871227 286.442819 
L 676.871227 174.145168 
L 676.871227 174.145168 
z
" clip-path="url(#pdb65ee0d7a)" style="fill: #e4b557"/>
    <path d="M 676.871227 286.442819 
L 676.871227 286.442819 
L 676.871227 174.145168 
z
" clip-path="url(#pdb65ee0d7a)" style="fill: #e4b557"/>
    <path d="M 711.009713 286.442819 
L 711.009713 286.442819 
L 676.871227 286.442819 
z
" clip-path="url(#pdb65ee0d7a)" style="fill: #e4b557"/>
    <path d="M 711.009713 286.442819 
L 676.871227 286.442819 
L 676.871227 286.442819 
z
" clip-path="url(#pdb65ee0d7a)" style="fill: #e4b557"/>
    <path d="M 711.009713 286.442819 
L 711.009713 165.161356 
L 711.009713 286.442819 
z
" clip-path="url(#pdb65ee0d7a)" style="fill: #e4b557"/>
    <path d="M 711.009713 286.442819 
L 711.009713 165.161356 
L 711.009713 165.161356 
z
" clip-path="url(#pdb65ee0d7a)" style="fill: #e4b557"/>
    <path d="M 721.790287 165.161356 
L 721.790287 165.161356 
L 711.009713 165.161356 
z
" clip-path="url(#pdb65ee0d7a)" style="fill: #e4b557"/>
    <path d="M 721.790287 165.161356 
L 711.009713 165.161356 
L 711.009713 165.161356 
z
" clip-path="url(#pdb65ee0d7a)" style="fill: #e4b557"/>
    <path d="M 721.790287 286.442819 
L 721.790287 286.442819 
L 721.790287 165.161356 
z
" clip-path="url(#pdb65ee0d7a)" style="fill: #e4b557"/>
    <path d="M 721.790287 286.442819 
L 721.790287 165.161356 
L 721.790287 165.161356 
z
" clip-path="url(#pdb65ee0d7a)" style="fill: #e4b557"/>
    <path d="M 755.928773 286.442819 
L 721.790287 286.442819 
L 721.790287 286.442819 
z
" clip-path="url(#pdb65ee0d7a)" style="fill: #e4b557"/>
    <path d="M 755.928773 286.442819 
L 755.928773 286.442819 
L 721.790287 286.442819 
z
" clip-path="url(#pdb65ee0d7a)" style="fill: #e4b557"/>
    <path d="M 755.928773 286.442819 
L 755.928773 174.145168 
L 755.928773 174.145168 
z
" clip-path="url(#pdb65ee0d7a)" style="fill: #e4b557"/>
    <path d="M 755.928773 286.442819 
L 755.928773 286.442819 
L 755.928773 174.145168 
z
" clip-path="url(#pdb65ee0d7a)" style="fill: #e4b557"/>
    <path d="M 762.217442 174.145168 
L 755.928773 174.145168 
L 755.928773 174.145168 
z
" clip-path="url(#pdb65ee0d7a)" style="fill: #e4b557"/>
    <path d="M 762.217442 174.145168 
L 755.928773 174.145168 
L 762.217442 174.145168 
z
" clip-path="url(#pdb65ee0d7a)" style="fill: #e4b557"/>
    <path d="M 775.69316 194.358745 
L 762.217442 174.145168 
L 762.217442 174.145168 
z
" clip-path="url(#pdb65ee0d7a)" style="fill: #e4b557"/>
    <path d="M 775.69316 194.358745 
L 762.217442 174.145168 
L 775.69316 194.358745 
z
" clip-path="url(#pdb65ee0d7a)" style="fill: #e4b557"/>
    <path d="M 775.69316 210.080416 
L 775.69316 194.358745 
L 775.69316 194.358745 
z
" clip-path="url(#pdb65ee0d7a)" style="fill: #e4b557"/>
    <path d="M 775.69316 210.080416 
L 775.69316 194.358745 
L 775.69316 210.080416 
z
" clip-path="url(#pdb65ee0d7a)" style="fill: #e4b557"/>
    <path d="M 762.217442 210.080416 
L 775.69316 210.080416 
L 775.69316 210.080416 
z
" clip-path="url(#pdb65ee0d7a)" style="fill: #e4b557"/>
    <path d="M 762.217442 210.080416 
L 775.69316 210.080416 
L 762.217442 210.080416 
z
" clip-path="url(#pdb65ee0d7a)" style="fill: #e4b557"/>
    <path d="M 762.217442 286.442819 
L 762.217442 210.080416 
L 762.217442 286.442819 
z
" clip-path="url(#pdb65ee0d7a)" style="fill: #e4b557"/>
    <path d="M 762.217442 286.442819 
L 762.217442 210.080416 
L 762.217442 210.080416 
z
" clip-path="url(#pdb65ee0d7a)" style="fill: #e4b557"/>
    <path d="M 770.302872 286.442819 
L 762.217442 286.442819 
L 762.217442 286.442819 
z
" clip-path="url(#pdb65ee0d7a)" style="fill: #e4b557"/>
    <path d="M 770.302872 286.442819 
L 770.302872 286.442819 
L 762.217442 286.442819 
z
" clip-path="url(#pdb65ee0d7a)" style="fill: #e4b557"/>
   </g>
   <g id="text_8">
    <!-- B -->
    <g transform="translate(712.589063 118.509765) scale(0.1 -0.1)">
     <use xlink:href="#DejaVuSans-Bold-42"/>
    </g>
   </g>
   <g id="text_9">
    <!-- A -->
    <g transform="translate(712.530469 300.431959) scale(0.1 -0.1)">
     <use xlink:href="#DejaVuSans-Bold-41"/>
    </g>
   </g>
   <g id="patch_5">
    <path d="M 619.577547 196.604698 
Q 642.283493 196.604698 662.194355 196.604698 
" style="fill: none; stroke: #30394a; stroke-width: 2.5; stroke-linecap: round"/>
    <path d="M 658.194355 194.604698 
L 662.194355 196.604698 
L 658.194355 198.604698 
" style="fill: none; stroke: #30394a; stroke-width: 2.5; stroke-linecap: round"/>
   </g>
   <g id="patch_6">
    <path d="M 813.222453 196.604698 
Q 790.516507 196.604698 770.605645 196.604698 
" style="fill: none; stroke: #30394a; stroke-width: 2.5; stroke-linecap: round"/>
    <path d="M 774.605645 198.604698 
L 770.605645 196.604698 
L 774.605645 194.604698 
" style="fill: none; stroke: #30394a; stroke-width: 2.5; stroke-linecap: round"/>
   </g>
   <g id="patch_7">
    <path d="M 716.4 328.872743 
Q 716.4 360.561102 716.4 389.454377 
" style="fill: none; stroke: #30394a; stroke-width: 2.5; stroke-linecap: round"/>
    <path d="M 718.4 385.454377 
L 716.4 389.454377 
L 714.4 385.454377 
" style="fill: none; stroke: #30394a; stroke-width: 2.5; stroke-linecap: round"/>
   </g>
   <g id="text_10">
    <!-- 3  Squeeze both buttons; pull apart -->
    <g transform="translate(609.9975 59.323235) scale(0.12 -0.12)">
     <defs>
      <path id="DejaVuSans-33" d="M 2597 2516 
Q 3050 2419 3304 2112 
Q 3559 1806 3559 1356 
Q 3559 666 3084 287 
Q 2609 -91 1734 -91 
Q 1441 -91 1130 -33 
Q 819 25 488 141 
L 488 750 
Q 750 597 1062 519 
Q 1375 441 1716 441 
Q 2309 441 2620 675 
Q 2931 909 2931 1356 
Q 2931 1769 2642 2001 
Q 2353 2234 1838 2234 
L 1294 2234 
L 1294 2753 
L 1863 2753 
Q 2328 2753 2575 2939 
Q 2822 3125 2822 3475 
Q 2822 3834 2567 4026 
Q 2313 4219 1838 4219 
Q 1578 4219 1281 4162 
Q 984 4106 628 3988 
L 628 4550 
Q 988 4650 1302 4700 
Q 1616 4750 1894 4750 
Q 2613 4750 3031 4423 
Q 3450 4097 3450 3541 
Q 3450 3153 3228 2886 
Q 3006 2619 2597 2516 
z
" transform="scale(0.015625)"/>
      <path id="DejaVuSans-71" d="M 947 1747 
Q 947 1113 1208 752 
Q 1469 391 1925 391 
Q 2381 391 2643 752 
Q 2906 1113 2906 1747 
Q 2906 2381 2643 2742 
Q 2381 3103 1925 3103 
Q 1469 3103 1208 2742 
Q 947 2381 947 1747 
z
M 2906 525 
Q 2725 213 2448 61 
Q 2172 -91 1784 -91 
Q 1150 -91 751 415 
Q 353 922 353 1747 
Q 353 2572 751 3078 
Q 1150 3584 1784 3584 
Q 2172 3584 2448 3432 
Q 2725 3281 2906 2969 
L 2906 3500 
L 3481 3500 
L 3481 -1331 
L 2906 -1331 
L 2906 525 
z
" transform="scale(0.015625)"/>
      <path id="DejaVuSans-7a" d="M 353 3500 
L 3084 3500 
L 3084 2975 
L 922 459 
L 3084 459 
L 3084 0 
L 275 0 
L 275 525 
L 2438 3041 
L 353 3041 
L 353 3500 
z
" transform="scale(0.015625)"/>
      <path id="DejaVuSans-3b" d="M 750 3309 
L 1409 3309 
L 1409 2516 
L 750 2516 
L 750 3309 
z
M 750 794 
L 1409 794 
L 1409 256 
L 897 -744 
L 494 -744 
L 750 256 
L 750 794 
z
" transform="scale(0.015625)"/>
     </defs>
     <use xlink:href="#DejaVuSans-33"/>
     <use xlink:href="#DejaVuSans-20" transform="translate(63.623047 0)"/>
     <use xlink:href="#DejaVuSans-20" transform="translate(95.410156 0)"/>
     <use xlink:href="#DejaVuSans-53" transform="translate(127.197266 0)"/>
     <use xlink:href="#DejaVuSans-71" transform="translate(190.673828 0)"/>
     <use xlink:href="#DejaVuSans-75" transform="translate(254.150391 0)"/>
     <use xlink:href="#DejaVuSans-65" transform="translate(317.529297 0)"/>
     <use xlink:href="#DejaVuSans-65" transform="translate(379.052734 0)"/>
     <use xlink:href="#DejaVuSans-7a" transform="translate(440.576172 0)"/>
     <use xlink:href="#DejaVuSans-65" transform="translate(493.066406 0)"/>
     <use xlink:href="#DejaVuSans-20" transform="translate(554.589844 0)"/>
     <use xlink:href="#DejaVuSans-62" transform="translate(586.376953 0)"/>
     <use xlink:href="#DejaVuSans-6f" transform="translate(649.853516 0)"/>
     <use xlink:href="#DejaVuSans-74" transform="translate(711.035156 0)"/>
     <use xlink:href="#DejaVuSans-68" transform="translate(750.244141 0)"/>
     <use xlink:href="#DejaVuSans-20" transform="translate(813.623047 0)"/>
     <use xlink:href="#DejaVuSans-62" transform="translate(845.410156 0)"/>
     <use xlink:href="#DejaVuSans-75" transform="translate(908.886719 0)"/>
     <use xlink:href="#DejaVuSans-74" transform="translate(972.265625 0)"/>
     <use xlink:href="#DejaVuSans-74" transform="translate(1011.474609 0)"/>
     <use xlink:href="#DejaVuSans-6f" transform="translate(1050.683594 0)"/>
     <use xlink:href="#DejaVuSans-6e" transform="translate(1111.865234 0)"/>
     <use xlink:href="#DejaVuSans-73" transform="translate(1175.244141 0)"/>
     <use xlink:href="#DejaVuSans-3b" transform="translate(1227.34375 0)"/>
     <use xlink:href="#DejaVuSans-20" transform="translate(1261.035156 0)"/>
     <use xlink:href="#DejaVuSans-70" transform="translate(1292.822266 0)"/>
     <use xlink:href="#DejaVuSans-75" transform="translate(1356.298828 0)"/>
     <use xlink:href="#DejaVuSans-6c" transform="translate(1419.677734 0)"/>
     <use xlink:href="#DejaVuSans-6c" transform="translate(1447.460938 0)"/>
     <use xlink:href="#DejaVuSans-20" transform="translate(1475.244141 0)"/>
     <use xlink:href="#DejaVuSans-61" transform="translate(1507.03125 0)"/>
     <use xlink:href="#DejaVuSans-70" transform="translate(1568.310547 0)"/>
     <use xlink:href="#DejaVuSans-61" transform="translate(1631.787109 0)"/>
     <use xlink:href="#DejaVuSans-72" transform="translate(1693.066406 0)"/>
     <use xlink:href="#DejaVuSans-74" transform="translate(1734.179688 0)"/>
    </g>
   </g>
  </g>
  <g id="text_11">
   <!-- Simple v17 squeeze latch — top section (socket roof omitted for clarity) -->
   <g transform="translate(161.957812 20.037656) scale(0.15 -0.15)">
    <defs>
     <path id="DejaVuSans-6d" d="M 3328 2828 
Q 3544 3216 3844 3400 
Q 4144 3584 4550 3584 
Q 5097 3584 5394 3201 
Q 5691 2819 5691 2113 
L 5691 0 
L 5113 0 
L 5113 2094 
Q 5113 2597 4934 2840 
Q 4756 3084 4391 3084 
Q 3944 3084 3684 2787 
Q 3425 2491 3425 1978 
L 3425 0 
L 2847 0 
L 2847 2094 
Q 2847 2600 2669 2842 
Q 2491 3084 2119 3084 
Q 1678 3084 1418 2786 
Q 1159 2488 1159 1978 
L 1159 0 
L 581 0 
L 581 3500 
L 1159 3500 
L 1159 2956 
Q 1356 3278 1631 3431 
Q 1906 3584 2284 3584 
Q 2666 3584 2933 3390 
Q 3200 3197 3328 2828 
z
" transform="scale(0.015625)"/>
     <path id="DejaVuSans-76" d="M 191 3500 
L 800 3500 
L 1894 563 
L 2988 3500 
L 3597 3500 
L 2284 0 
L 1503 0 
L 191 3500 
z
" transform="scale(0.015625)"/>
     <path id="DejaVuSans-37" d="M 525 4666 
L 3525 4666 
L 3525 4397 
L 1831 0 
L 1172 0 
L 2766 4134 
L 525 4134 
L 525 4666 
z
" transform="scale(0.015625)"/>
     <path id="DejaVuSans-2014" d="M 313 1978 
L 6088 1978 
L 6088 1528 
L 313 1528 
L 313 1978 
z
" transform="scale(0.015625)"/>
     <path id="DejaVuSans-28" d="M 1984 4856 
Q 1566 4138 1362 3434 
Q 1159 2731 1159 2009 
Q 1159 1288 1364 580 
Q 1569 -128 1984 -844 
L 1484 -844 
Q 1016 -109 783 600 
Q 550 1309 550 2009 
Q 550 2706 781 3412 
Q 1013 4119 1484 4856 
L 1984 4856 
z
" transform="scale(0.015625)"/>
     <path id="DejaVuSans-66" d="M 2375 4863 
L 2375 4384 
L 1825 4384 
Q 1516 4384 1395 4259 
Q 1275 4134 1275 3809 
L 1275 3500 
L 2222 3500 
L 2222 3053 
L 1275 3053 
L 1275 0 
L 697 0 
L 697 3053 
L 147 3053 
L 147 3500 
L 697 3500 
L 697 3744 
Q 697 4328 969 4595 
Q 1241 4863 1831 4863 
L 2375 4863 
z
" transform="scale(0.015625)"/>
     <path id="DejaVuSans-79" d="M 2059 -325 
Q 1816 -950 1584 -1140 
Q 1353 -1331 966 -1331 
L 506 -1331 
L 506 -850 
L 844 -850 
Q 1081 -850 1212 -737 
Q 1344 -625 1503 -206 
L 1606 56 
L 191 3500 
L 800 3500 
L 1894 763 
L 2988 3500 
L 3597 3500 
L 2059 -325 
z
" transform="scale(0.015625)"/>
     <path id="DejaVuSans-29" d="M 513 4856 
L 1013 4856 
Q 1481 4119 1714 3412 
Q 1947 2706 1947 2009 
Q 1947 1309 1714 600 
Q 1481 -109 1013 -844 
L 513 -844 
Q 928 -128 1133 580 
Q 1338 1288 1338 2009 
Q 1338 2731 1133 3434 
Q 928 4138 513 4856 
z
" transform="scale(0.015625)"/>
    </defs>
    <use xlink:href="#DejaVuSans-53"/>
    <use xlink:href="#DejaVuSans-69" transform="translate(63.476562 0)"/>
    <use xlink:href="#DejaVuSans-6d" transform="translate(91.259766 0)"/>
    <use xlink:href="#DejaVuSans-70" transform="translate(188.671875 0)"/>
    <use xlink:href="#DejaVuSans-6c" transform="translate(252.148438 0)"/>
    <use xlink:href="#DejaVuSans-65" transform="translate(279.931641 0)"/>
    <use xlink:href="#DejaVuSans-20" transform="translate(341.455078 0)"/>
    <use xlink:href="#DejaVuSans-76" transform="translate(373.242188 0)"/>
    <use xlink:href="#DejaVuSans-31" transform="translate(432.421875 0)"/>
    <use xlink:href="#DejaVuSans-37" transform="translate(496.044922 0)"/>
    <use xlink:href="#DejaVuSans-20" transform="translate(559.667969 0)"/>
    <use xlink:href="#DejaVuSans-73" transform="translate(591.455078 0)"/>
    <use xlink:href="#DejaVuSans-71" transform="translate(643.554688 0)"/>
    <use xlink:href="#DejaVuSans-75" transform="translate(707.03125 0)"/>
    <use xlink:href="#DejaVuSans-65" transform="translate(770.410156 0)"/>
    <use xlink:href="#DejaVuSans-65" transform="translate(831.933594 0)"/>
    <use xlink:href="#DejaVuSans-7a" transform="translate(893.457031 0)"/>
    <use xlink:href="#DejaVuSans-65" transform="translate(945.947266 0)"/>
    <use xlink:href="#DejaVuSans-20" transform="translate(1007.470703 0)"/>
    <use xlink:href="#DejaVuSans-6c" transform="translate(1039.257812 0)"/>
    <use xlink:href="#DejaVuSans-61" transform="translate(1067.041016 0)"/>
    <use xlink:href="#DejaVuSans-74" transform="translate(1128.320312 0)"/>
    <use xlink:href="#DejaVuSans-63" transform="translate(1167.529297 0)"/>
    <use xlink:href="#DejaVuSans-68" transform="translate(1222.509766 0)"/>
    <use xlink:href="#DejaVuSans-20" transform="translate(1285.888672 0)"/>
    <use xlink:href="#DejaVuSans-2014" transform="translate(1317.675781 0)"/>
    <use xlink:href="#DejaVuSans-20" transform="translate(1417.675781 0)"/>
    <use xlink:href="#DejaVuSans-74" transform="translate(1449.462891 0)"/>
    <use xlink:href="#DejaVuSans-6f" transform="translate(1488.671875 0)"/>
    <use xlink:href="#DejaVuSans-70" transform="translate(1549.853516 0)"/>
    <use xlink:href="#DejaVuSans-20" transform="translate(1613.330078 0)"/>
    <use xlink:href="#DejaVuSans-73" transform="translate(1645.117188 0)"/>
    <use xlink:href="#DejaVuSans-65" transform="translate(1697.216797 0)"/>
    <use xlink:href="#DejaVuSans-63" transform="translate(1758.740234 0)"/>
    <use xlink:href="#DejaVuSans-74" transform="translate(1813.720703 0)"/>
    <use xlink:href="#DejaVuSans-69" transform="translate(1852.929688 0)"/>
    <use xlink:href="#DejaVuSans-6f" transform="translate(1880.712891 0)"/>
    <use xlink:href="#DejaVuSans-6e" transform="translate(1941.894531 0)"/>
    <use xlink:href="#DejaVuSans-20" transform="translate(2005.273438 0)"/>
    <use xlink:href="#DejaVuSans-28" transform="translate(2037.060547 0)"/>
    <use xlink:href="#DejaVuSans-73" transform="translate(2076.074219 0)"/>
    <use xlink:href="#DejaVuSans-6f" transform="translate(2128.173828 0)"/>
    <use xlink:href="#DejaVuSans-63" transform="translate(2189.355469 0)"/>
    <use xlink:href="#DejaVuSans-6b" transform="translate(2244.335938 0)"/>
    <use xlink:href="#DejaVuSans-65" transform="translate(2298.621094 0)"/>
    <use xlink:href="#DejaVuSans-74" transform="translate(2360.144531 0)"/>
    <use xlink:href="#DejaVuSans-20" transform="translate(2399.353516 0)"/>
    <use xlink:href="#DejaVuSans-72" transform="translate(2431.140625 0)"/>
    <use xlink:href="#DejaVuSans-6f" transform="translate(2470.003906 0)"/>
    <use xlink:href="#DejaVuSans-6f" transform="translate(2531.185547 0)"/>
    <use xlink:href="#DejaVuSans-66" transform="translate(2592.367188 0)"/>
    <use xlink:href="#DejaVuSans-20" transform="translate(2627.572266 0)"/>
    <use xlink:href="#DejaVuSans-6f" transform="translate(2659.359375 0)"/>
    <use xlink:href="#DejaVuSans-6d" transform="translate(2720.541016 0)"/>
    <use xlink:href="#DejaVuSans-69" transform="translate(2817.953125 0)"/>
    <use xlink:href="#DejaVuSans-74" transform="translate(2845.736328 0)"/>
    <use xlink:href="#DejaVuSans-74" transform="translate(2884.945312 0)"/>
    <use xlink:href="#DejaVuSans-65" transform="translate(2924.154297 0)"/>
    <use xlink:href="#DejaVuSans-64" transform="translate(2985.677734 0)"/>
    <use xlink:href="#DejaVuSans-20" transform="translate(3049.154297 0)"/>
    <use xlink:href="#DejaVuSans-66" transform="translate(3080.941406 0)"/>
    <use xlink:href="#DejaVuSans-6f" transform="translate(3116.146484 0)"/>
    <use xlink:href="#DejaVuSans-72" transform="translate(3177.328125 0)"/>
    <use xlink:href="#DejaVuSans-20" transform="translate(3218.441406 0)"/>
    <use xlink:href="#DejaVuSans-63" transform="translate(3250.228516 0)"/>
    <use xlink:href="#DejaVuSans-6c" transform="translate(3305.208984 0)"/>
    <use xlink:href="#DejaVuSans-61" transform="translate(3332.992188 0)"/>
    <use xlink:href="#DejaVuSans-72" transform="translate(3394.271484 0)"/>
    <use xlink:href="#DejaVuSans-69" transform="translate(3435.384766 0)"/>
    <use xlink:href="#DejaVuSans-74" transform="translate(3463.167969 0)"/>
    <use xlink:href="#DejaVuSans-79" transform="translate(3502.376953 0)"/>
    <use xlink:href="#DejaVuSans-29" transform="translate(3561.556641 0)"/>
   </g>
  </g>
 </g>
 <defs>
  <clipPath id="p5aea308104">
   <rect x="39.794255" y="75.323235" width="215.61149" height="345.876765"/>
  </clipPath>
  <clipPath id="p75b5d6b79f">
   <rect x="324.194255" y="75.323235" width="215.61149" height="345.876765"/>
  </clipPath>
  <clipPath id="pdb65ee0d7a">
   <rect x="608.594255" y="75.323235" width="215.61149" height="345.876765"/>
  </clipPath>
 </defs>
</svg>
